%TF.GenerationSoftware,KiCad,Pcbnew,10.0.1*%
%TF.CreationDate,2026-05-12T20:21:21-04:00*%
%TF.ProjectId,chargingCircuit,63686172-6769-46e6-9743-697263756974,rev?*%
%TF.SameCoordinates,Original*%
%TF.FileFunction,Copper,L1,Top*%
%TF.FilePolarity,Positive*%
%FSLAX46Y46*%
G04 Gerber Fmt 4.6, Leading zero omitted, Abs format (unit mm)*
G04 Created by KiCad (PCBNEW 10.0.1) date 2026-05-12 20:21:21*
%MOMM*%
%LPD*%
G01*
G04 APERTURE LIST*
G04 Aperture macros list*
%AMRoundRect*
0 Rectangle with rounded corners*
0 $1 Rounding radius*
0 $2 $3 $4 $5 $6 $7 $8 $9 X,Y pos of 4 corners*
0 Add a 4 corners polygon primitive as box body*
4,1,4,$2,$3,$4,$5,$6,$7,$8,$9,$2,$3,0*
0 Add four circle primitives for the rounded corners*
1,1,$1+$1,$2,$3*
1,1,$1+$1,$4,$5*
1,1,$1+$1,$6,$7*
1,1,$1+$1,$8,$9*
0 Add four rect primitives between the rounded corners*
20,1,$1+$1,$2,$3,$4,$5,0*
20,1,$1+$1,$4,$5,$6,$7,0*
20,1,$1+$1,$6,$7,$8,$9,0*
20,1,$1+$1,$8,$9,$2,$3,0*%
%AMFreePoly0*
4,1,22,-0.180036,0.885116,0.179985,0.885116,0.179985,1.715113,0.469977,1.715113,0.469977,0.885116,0.759970,0.885116,0.759970,-0.884887,0.469977,-0.884887,0.469977,-1.704902,0.179985,-1.704902,0.179985,-0.884887,-0.180036,-0.884887,-0.180036,-1.704902,-0.470028,-1.704902,-0.470028,-0.884887,-0.760020,-0.884887,-0.760020,0.895098,-0.759995,0.895123,-0.470028,0.895098,-0.470028,1.715113,
-0.180036,1.715113,-0.180036,0.885116,-0.180036,0.885116,$1*%
%AMFreePoly1*
4,1,21,1.524994,0.375083,2.705004,0.375083,2.705004,0.175083,2.064999,0.175083,2.064999,-0.174930,2.705004,-0.174930,2.705004,-0.374930,1.524994,-0.374930,1.524994,-1.024917,-1.524994,-1.024917,-1.524994,-0.374930,-2.705004,-0.374930,-2.705004,-0.174930,-2.315011,-0.174930,-2.315011,0.175083,-2.705004,0.175083,-2.705004,0.380086,-1.524994,0.375083,-1.524994,1.025070,1.524994,1.025070,
1.524994,0.375083,1.524994,0.375083,$1*%
%AMFreePoly2*
4,1,9,0.299924,-0.649936,-0.000051,-0.649936,-0.000051,-0.650089,-0.300051,-0.650089,-0.300051,0.649936,-0.000076,0.649936,-0.000076,0.650089,0.299924,0.650089,0.299924,-0.649936,0.299924,-0.649936,$1*%
%AMFreePoly3*
4,1,9,0.300076,-0.650038,0.000127,-0.650038,0.000127,-0.650064,-0.299898,-0.650064,-0.299898,0.649911,0.000051,0.649911,0.000051,0.649936,0.300076,0.649936,0.300076,-0.650038,0.300076,-0.650038,$1*%
%AMFreePoly4*
4,1,5,0.299873,-0.649886,-0.300152,-0.649886,-0.300152,0.650089,0.299873,0.650089,0.299873,-0.649886,0.299873,-0.649886,$1*%
G04 Aperture macros list end*
%TA.AperFunction,SMDPad,CuDef*%
%ADD10RoundRect,0.140000X-0.170000X0.140000X-0.170000X-0.140000X0.170000X-0.140000X0.170000X0.140000X0*%
%TD*%
%TA.AperFunction,SMDPad,CuDef*%
%ADD11RoundRect,0.243750X-0.243750X-0.456250X0.243750X-0.456250X0.243750X0.456250X-0.243750X0.456250X0*%
%TD*%
%TA.AperFunction,SMDPad,CuDef*%
%ADD12RoundRect,0.140000X0.170000X-0.140000X0.170000X0.140000X-0.170000X0.140000X-0.170000X-0.140000X0*%
%TD*%
%TA.AperFunction,SMDPad,CuDef*%
%ADD13RoundRect,0.200000X0.275000X-0.200000X0.275000X0.200000X-0.275000X0.200000X-0.275000X-0.200000X0*%
%TD*%
%TA.AperFunction,ComponentPad*%
%ADD14R,1.700000X1.700000*%
%TD*%
%TA.AperFunction,ComponentPad*%
%ADD15C,1.700000*%
%TD*%
%TA.AperFunction,SMDPad,CuDef*%
%ADD16RoundRect,0.135000X0.185000X-0.135000X0.185000X0.135000X-0.185000X0.135000X-0.185000X-0.135000X0*%
%TD*%
%TA.AperFunction,SMDPad,CuDef*%
%ADD17RoundRect,0.140000X-0.140000X-0.170000X0.140000X-0.170000X0.140000X0.170000X-0.140000X0.170000X0*%
%TD*%
%TA.AperFunction,SMDPad,CuDef*%
%ADD18RoundRect,0.218750X-0.256250X0.218750X-0.256250X-0.218750X0.256250X-0.218750X0.256250X0.218750X0*%
%TD*%
%TA.AperFunction,SMDPad,CuDef*%
%ADD19R,0.849886X0.240005*%
%TD*%
%TA.AperFunction,SMDPad,CuDef*%
%ADD20R,0.800000X0.229997*%
%TD*%
%TA.AperFunction,SMDPad,CuDef*%
%ADD21FreePoly0,180.000000*%
%TD*%
%TA.AperFunction,SMDPad,CuDef*%
%ADD22RoundRect,0.140000X0.140000X0.170000X-0.140000X0.170000X-0.140000X-0.170000X0.140000X-0.170000X0*%
%TD*%
%TA.AperFunction,SMDPad,CuDef*%
%ADD23RoundRect,0.135000X0.135000X0.185000X-0.135000X0.185000X-0.135000X-0.185000X0.135000X-0.185000X0*%
%TD*%
%TA.AperFunction,SMDPad,CuDef*%
%ADD24RoundRect,0.135000X-0.135000X-0.185000X0.135000X-0.185000X0.135000X0.185000X-0.135000X0.185000X0*%
%TD*%
%TA.AperFunction,ComponentPad*%
%ADD25O,1.700000X1.700000*%
%TD*%
%TA.AperFunction,SMDPad,CuDef*%
%ADD26R,0.840005X0.280010*%
%TD*%
%TA.AperFunction,SMDPad,CuDef*%
%ADD27R,0.750013X0.280010*%
%TD*%
%TA.AperFunction,SMDPad,CuDef*%
%ADD28RoundRect,0.135000X-0.185000X0.135000X-0.185000X-0.135000X0.185000X-0.135000X0.185000X0.135000X0*%
%TD*%
%TA.AperFunction,SMDPad,CuDef*%
%ADD29R,0.664999X0.335992*%
%TD*%
%TA.AperFunction,SMDPad,CuDef*%
%ADD30R,0.280010X0.664999*%
%TD*%
%TA.AperFunction,SMDPad,CuDef*%
%ADD31FreePoly1,0.000000*%
%TD*%
%TA.AperFunction,SMDPad,CuDef*%
%ADD32RoundRect,0.250000X-0.250000X-0.475000X0.250000X-0.475000X0.250000X0.475000X-0.250000X0.475000X0*%
%TD*%
%TA.AperFunction,SMDPad,CuDef*%
%ADD33R,1.100000X0.600000*%
%TD*%
%TA.AperFunction,ComponentPad*%
%ADD34O,1.200000X2.000000*%
%TD*%
%TA.AperFunction,ComponentPad*%
%ADD35O,1.200000X1.800000*%
%TD*%
%TA.AperFunction,SMDPad,CuDef*%
%ADD36FreePoly2,0.000000*%
%TD*%
%TA.AperFunction,SMDPad,CuDef*%
%ADD37FreePoly3,0.000000*%
%TD*%
%TA.AperFunction,SMDPad,CuDef*%
%ADD38R,0.300000X1.300000*%
%TD*%
%TA.AperFunction,SMDPad,CuDef*%
%ADD39FreePoly4,0.000000*%
%TD*%
%TA.AperFunction,ViaPad*%
%ADD40C,0.600000*%
%TD*%
%TA.AperFunction,ViaPad*%
%ADD41C,1.200000*%
%TD*%
%TA.AperFunction,ViaPad*%
%ADD42C,0.500000*%
%TD*%
%TA.AperFunction,ViaPad*%
%ADD43C,0.800000*%
%TD*%
%TA.AperFunction,Conductor*%
%ADD44C,0.500000*%
%TD*%
%TA.AperFunction,Conductor*%
%ADD45C,0.200000*%
%TD*%
%TA.AperFunction,Conductor*%
%ADD46C,0.300000*%
%TD*%
G04 APERTURE END LIST*
D10*
%TO.P,C11,1*%
%TO.N,/3.3V OUT*%
X197377380Y-110614953D03*
%TO.P,C11,2*%
%TO.N,GND*%
X197377380Y-111574953D03*
%TD*%
%TO.P,C9,1*%
%TO.N,Net-(U2-BAT)*%
X195850003Y-115560028D03*
%TO.P,C9,2*%
%TO.N,/CELL-*%
X195850003Y-116520028D03*
%TD*%
%TO.P,C10,1*%
%TO.N,/3.3V OUT*%
X196317380Y-110614953D03*
%TO.P,C10,2*%
%TO.N,GND*%
X196317380Y-111574953D03*
%TD*%
D11*
%TO.P,D2,1,K_1*%
%TO.N,Net-(D2-K)*%
X180115243Y-113150000D03*
%TO.P,D2,2,A_2*%
%TO.N,Net-(D2-A)*%
X181990243Y-113150000D03*
%TD*%
D12*
%TO.P,C8,1*%
%TO.N,/4.4V OUT*%
X197770000Y-105490000D03*
%TO.P,C8,2*%
%TO.N,GND*%
X197770000Y-104530000D03*
%TD*%
D13*
%TO.P,R7,1*%
%TO.N,Net-(U1-TMR)*%
X185302743Y-103075000D03*
%TO.P,R7,2*%
%TO.N,GND*%
X185302743Y-101425000D03*
%TD*%
D14*
%TO.P,J2,1,Pin_1_1*%
%TO.N,unconnected-(J2-Pin_1-Pad1)*%
X203000000Y-81260000D03*
D15*
%TO.P,J2,2,Pin_2_2*%
%TO.N,unconnected-(J2-Pin_2-Pad2)*%
X203000000Y-83800000D03*
%TO.P,J2,3,Pin_3_3*%
%TO.N,unconnected-(J2-Pin_3-Pad3)*%
X203000000Y-86340000D03*
%TO.P,J2,4,Pin_4_4*%
%TO.N,unconnected-(J2-Pin_4-Pad4)*%
X203000000Y-88880000D03*
%TO.P,J2,5,Pin_5_5*%
%TO.N,unconnected-(J2-Pin_5-Pad5)*%
X203000000Y-91420000D03*
%TO.P,J2,6,Pin_6_6*%
%TO.N,unconnected-(J2-Pin_6-Pad6)*%
X203000000Y-93960000D03*
%TO.P,J2,7,Pin_7_7*%
%TO.N,unconnected-(J2-Pin_7-Pad7)*%
X203000000Y-96500000D03*
%TO.P,J2,8,Pin_8_8*%
%TO.N,unconnected-(J2-Pin_8-Pad8)*%
X203000000Y-99040000D03*
%TO.P,J2,9,Pin_9_9*%
%TO.N,unconnected-(J2-Pin_9-Pad9)*%
X203000000Y-101580000D03*
%TO.P,J2,10,Pin_10_10*%
%TO.N,unconnected-(J2-Pin_10-Pad10)*%
X203000000Y-104120000D03*
%TO.P,J2,11,Pin_11_11*%
%TO.N,unconnected-(J2-Pin_11-Pad11)*%
X203000000Y-106660000D03*
%TO.P,J2,12,Pin_12_12*%
%TO.N,unconnected-(J2-Pin_12-Pad12)*%
X203000000Y-109200000D03*
%TO.P,J2,13,Pin_13_13*%
%TO.N,unconnected-(J2-Pin_13-Pad13)*%
X203000000Y-111740000D03*
%TO.P,J2,14,Pin_14_14*%
%TO.N,GND*%
X203000000Y-114280000D03*
%TO.P,J2,15,Pin_15_15*%
%TO.N,/3.3V OUT*%
X203000000Y-116820000D03*
%TD*%
D10*
%TO.P,C3,1*%
%TO.N,Net-(U1-VREF)*%
X180800000Y-107040000D03*
%TO.P,C3,2*%
%TO.N,GND*%
X180800000Y-108000000D03*
%TD*%
D16*
%TO.P,R12,1*%
%TO.N,Net-(U2-V-)*%
X198530003Y-112600028D03*
%TO.P,R12,2*%
%TO.N,GND*%
X198530003Y-111580028D03*
%TD*%
D17*
%TO.P,C12,1*%
%TO.N,Net-(U1-DPPM)*%
X186930000Y-102015000D03*
%TO.P,C12,2*%
%TO.N,GND*%
X187890000Y-102015000D03*
%TD*%
D18*
%TO.P,L1,1,1_1*%
%TO.N,Net-(U3-L1)*%
X199680000Y-107267580D03*
%TO.P,L1,2,2_2*%
%TO.N,Net-(U3-L2)*%
X199680000Y-108842580D03*
%TD*%
D19*
%TO.P,U3,1,VOUT_1*%
%TO.N,/3.3V OUT*%
X198179873Y-109055080D03*
%TO.P,U3,2,L2_2*%
%TO.N,Net-(U3-L2)*%
X198179873Y-108555207D03*
%TO.P,U3,3,PGND_3*%
%TO.N,GND*%
X198179873Y-108055080D03*
%TO.P,U3,4,L1_4*%
%TO.N,Net-(U3-L1)*%
X198179873Y-107555207D03*
%TO.P,U3,5,VIN_5*%
%TO.N,/4.4V OUT*%
X198179873Y-107055080D03*
D20*
%TO.P,U3,6,EN_6*%
X195180127Y-107055080D03*
%TO.P,U3,7,PS/SYNC_7*%
X195180127Y-107555207D03*
%TO.P,U3,8,VINA_8*%
X195180127Y-108055080D03*
%TO.P,U3,9,GND_9*%
%TO.N,GND*%
X195180127Y-108555207D03*
%TO.P,U3,10,FB_10*%
%TO.N,/3.3V OUT*%
X195180127Y-109055080D03*
D21*
%TO.P,U3,11,PAD_11*%
%TO.N,GND*%
X196680000Y-108050000D03*
%TD*%
D22*
%TO.P,C1,1*%
%TO.N,/5V IN*%
X183880000Y-109400000D03*
%TO.P,C1,2*%
%TO.N,GND*%
X182920000Y-109400000D03*
%TD*%
D23*
%TO.P,R5,1*%
%TO.N,/5V IN*%
X184442743Y-112670000D03*
%TO.P,R5,2*%
%TO.N,Net-(D2-A)*%
X183422743Y-112670000D03*
%TD*%
D16*
%TO.P,R14,1*%
%TO.N,Net-(USBC1-CC1)*%
X184552743Y-115510000D03*
%TO.P,R14,2*%
%TO.N,GND*%
X184552743Y-114490000D03*
%TD*%
D24*
%TO.P,R9,1*%
%TO.N,Net-(U1-TS)*%
X187042743Y-104250000D03*
%TO.P,R9,2*%
%TO.N,GND*%
X188062743Y-104250000D03*
%TD*%
D25*
%TO.P,U4,1,1_1*%
%TO.N,/CELL+*%
X195059994Y-119800000D03*
%TO.P,U4,2,2_2*%
%TO.N,/CELL-*%
X197600000Y-119800000D03*
%TD*%
D26*
%TO.P,U2,1,NC_1*%
%TO.N,unconnected-(U2-NC-Pad1)*%
X196078977Y-112840028D03*
D27*
%TO.P,U2,2,COUT_2*%
%TO.N,Net-(Q1-G1)*%
X196023859Y-113339901D03*
%TO.P,U2,3,DOUT_3*%
%TO.N,Net-(Q1-G2)*%
X196023859Y-113840028D03*
%TO.P,U2,4,VSS_4*%
%TO.N,/CELL-*%
X197296147Y-113840028D03*
%TO.P,U2,5,BAT_5*%
%TO.N,Net-(U2-BAT)*%
X197296147Y-113339901D03*
%TO.P,U2,6,V-_6*%
%TO.N,Net-(U2-V-)*%
X197296147Y-112840028D03*
%TD*%
D24*
%TO.P,R6,1*%
%TO.N,Net-(U1-ISET1)*%
X187292743Y-107000000D03*
%TO.P,R6,2*%
%TO.N,GND*%
X188312743Y-107000000D03*
%TD*%
D22*
%TO.P,C4,1*%
%TO.N,/4.4V OUT*%
X183680000Y-103200000D03*
%TO.P,C4,2*%
%TO.N,GND*%
X182720000Y-103200000D03*
%TD*%
D24*
%TO.P,R8,1*%
%TO.N,Net-(U1-CE)*%
X182292743Y-102000000D03*
%TO.P,R8,2*%
%TO.N,/4.4V OUT*%
X183312743Y-102000000D03*
%TD*%
D23*
%TO.P,R10,1*%
%TO.N,GND*%
X187920000Y-103265000D03*
%TO.P,R10,2*%
%TO.N,Net-(U1-DPPM)*%
X186900000Y-103265000D03*
%TD*%
D14*
%TO.P,J3,1,Pin_1_1*%
%TO.N,unconnected-(J3-Pin_1-Pad1)*%
X177000000Y-81260000D03*
D15*
%TO.P,J3,2,Pin_2_2*%
%TO.N,unconnected-(J3-Pin_2-Pad2)*%
X177000000Y-83800000D03*
%TO.P,J3,3,Pin_3_3*%
%TO.N,unconnected-(J3-Pin_3-Pad3)*%
X177000000Y-86340000D03*
%TO.P,J3,4,Pin_4_4*%
%TO.N,unconnected-(J3-Pin_4-Pad4)*%
X177000000Y-88880000D03*
%TO.P,J3,5,Pin_5_5*%
%TO.N,unconnected-(J3-Pin_5-Pad5)*%
X177000000Y-91420000D03*
%TO.P,J3,6,Pin_6_6*%
%TO.N,unconnected-(J3-Pin_6-Pad6)*%
X177000000Y-93960000D03*
%TO.P,J3,7,Pin_7_7*%
%TO.N,unconnected-(J3-Pin_7-Pad7)*%
X177000000Y-96500000D03*
%TO.P,J3,8,Pin_8_8*%
%TO.N,unconnected-(J3-Pin_8-Pad8)*%
X177000000Y-99040000D03*
%TO.P,J3,9,Pin_9_9*%
%TO.N,unconnected-(J3-Pin_9-Pad9)*%
X177000000Y-101580000D03*
%TO.P,J3,10,Pin_10_10*%
%TO.N,unconnected-(J3-Pin_10-Pad10)*%
X177000000Y-104120000D03*
%TO.P,J3,11,Pin_11_11*%
%TO.N,unconnected-(J3-Pin_11-Pad11)*%
X177000000Y-106660000D03*
%TO.P,J3,12,Pin_12_12*%
%TO.N,unconnected-(J3-Pin_12-Pad12)*%
X177000000Y-109200000D03*
%TO.P,J3,13,Pin_13_13*%
%TO.N,unconnected-(J3-Pin_13-Pad13)*%
X177000000Y-111740000D03*
%TO.P,J3,14,Pin_14_14*%
%TO.N,unconnected-(J3-Pin_14-Pad14)*%
X177000000Y-114280000D03*
%TO.P,J3,15,Pin_15_15*%
%TO.N,unconnected-(J3-Pin_15-Pad15)*%
X177000000Y-116820000D03*
%TD*%
D28*
%TO.P,R11,1*%
%TO.N,Net-(U2-BAT)*%
X197280003Y-115550028D03*
%TO.P,R11,2*%
%TO.N,/CELL+*%
X197280003Y-116570028D03*
%TD*%
D11*
%TO.P,D1,1,K_1*%
%TO.N,Net-(D1-K)*%
X180195243Y-110980000D03*
%TO.P,D1,2,A_2*%
%TO.N,Net-(D1-A)*%
X182070243Y-110980000D03*
%TD*%
D29*
%TO.P,U1,1,VREF_1*%
%TO.N,Net-(U1-VREF)*%
X181895263Y-106999886D03*
D30*
%TO.P,U1,2,STAT1_2*%
%TO.N,Net-(D1-K)*%
X182302679Y-107907430D03*
%TO.P,U1,3,STAT2_3*%
%TO.N,Net-(D2-K)*%
X182802807Y-107907430D03*
%TO.P,U1,4,IN_4*%
%TO.N,/5V IN*%
X183302679Y-107907430D03*
%TO.P,U1,5,BAT_5*%
%TO.N,/CELL+*%
X183802807Y-107907430D03*
%TO.P,U1,6,BAT_6*%
X184302679Y-107907430D03*
%TO.P,U1,7,ISET2_7*%
%TO.N,Net-(U1-CE)*%
X184802807Y-107907430D03*
%TO.P,U1,8,MODE_8*%
X185302679Y-107907430D03*
%TO.P,U1,9,CE_9*%
X185802807Y-107907430D03*
D29*
%TO.P,U1,10,ISET1_10*%
%TO.N,Net-(U1-ISET1)*%
X186210223Y-106999886D03*
%TO.P,U1,11,VSS_11*%
%TO.N,GND*%
X186210223Y-105500013D03*
D30*
%TO.P,U1,12,TS_12*%
%TO.N,Net-(U1-TS)*%
X185802807Y-104592469D03*
%TO.P,U1,13,DPPM_13*%
%TO.N,Net-(U1-DPPM)*%
X185302679Y-104592469D03*
%TO.P,U1,14,TMR_14*%
%TO.N,Net-(U1-TMR)*%
X184802807Y-104592469D03*
%TO.P,U1,15,OUT_15*%
%TO.N,/4.4V OUT*%
X184302679Y-104592469D03*
%TO.P,U1,16,OUT_16*%
X183802807Y-104592469D03*
%TO.P,U1,17,OUT_17*%
X183302679Y-104592469D03*
%TO.P,U1,18,PG_18*%
%TO.N,unconnected-(U1-PG-Pad18)*%
X182802807Y-104592469D03*
%TO.P,U1,19,GND_19*%
%TO.N,GND*%
X182302679Y-104592469D03*
D29*
%TO.P,U1,20,GND_20*%
X181895263Y-105500013D03*
D31*
%TO.P,U1,21,EP_21*%
X184052743Y-106250076D03*
%TD*%
D16*
%TO.P,R13,1*%
%TO.N,Net-(USBC1-CC2)*%
X186552743Y-115510000D03*
%TO.P,R13,2*%
%TO.N,GND*%
X186552743Y-114490000D03*
%TD*%
D22*
%TO.P,C2,1*%
%TO.N,/5V IN*%
X184360000Y-110450000D03*
%TO.P,C2,2*%
%TO.N,GND*%
X183400000Y-110450000D03*
%TD*%
D32*
%TO.P,C5,1*%
%TO.N,/CELL+*%
X187400000Y-110000000D03*
%TO.P,C5,2*%
%TO.N,GND*%
X189300000Y-110000000D03*
%TD*%
D16*
%TO.P,R15,1*%
%TO.N,Net-(R15-Pad1)*%
X188052743Y-115510000D03*
%TO.P,R15,2*%
%TO.N,GND*%
X188052743Y-114490000D03*
%TD*%
D33*
%TO.P,Q1,1,S1_1*%
%TO.N,GND*%
X191679990Y-114380066D03*
%TO.P,Q1,2,D1/D2_2*%
%TO.N,Net-(Q1-D1{slash}D2-Pad2)*%
X191679990Y-115330028D03*
%TO.P,Q1,3,S2_3*%
%TO.N,/CELL-*%
X191679990Y-116279990D03*
%TO.P,Q1,4,G2_4*%
%TO.N,Net-(Q1-G2)*%
X194380016Y-116279990D03*
%TO.P,Q1,5,D1/D2_5*%
%TO.N,Net-(Q1-D1{slash}D2-Pad2)*%
X194380016Y-115330028D03*
%TO.P,Q1,6,G1_6*%
%TO.N,Net-(Q1-G1)*%
X194380016Y-114380066D03*
%TD*%
D34*
%TO.P,USBC1,1,EH_1*%
%TO.N,Net-(R15-Pad1)*%
X189052743Y-117768352D03*
D35*
%TO.P,USBC1,2,EH_2*%
X189052743Y-121948184D03*
%TO.P,USBC1,3,EH_3*%
X180402501Y-121948184D03*
D34*
%TO.P,USBC1,4,EH_4*%
X180402501Y-117768352D03*
D36*
%TO.P,USBC1,A1B12,GND_A1B12*%
%TO.N,GND*%
X181527724Y-117000000D03*
D37*
%TO.P,USBC1,A4B9,VBUS_A4B9*%
%TO.N,/5V IN*%
X182327571Y-117000000D03*
D38*
%TO.P,USBC1,A5,CC1_A5*%
%TO.N,Net-(USBC1-CC1)*%
X183477686Y-117000000D03*
%TO.P,USBC1,A6,DP1_A6*%
%TO.N,Net-(USBC1-DN1)*%
X184477686Y-117000000D03*
%TO.P,USBC1,A7,DN1_A7*%
X184977558Y-117000000D03*
%TO.P,USBC1,A8,SBU1_A8*%
%TO.N,unconnected-(USBC1-SBU1-PadA8)*%
X185977304Y-117000000D03*
D39*
%TO.P,USBC1,B1A12,GND_B1A12*%
%TO.N,GND*%
X187927774Y-117000000D03*
%TO.P,USBC1,B4A9,VBUS_B4A9*%
%TO.N,/5V IN*%
X187127927Y-117000000D03*
D38*
%TO.P,USBC1,B5,CC2_B5*%
%TO.N,Net-(USBC1-CC2)*%
X186477686Y-117000000D03*
%TO.P,USBC1,B6,DP2_B6*%
%TO.N,Net-(USBC1-DN2)*%
X185477686Y-117000000D03*
%TO.P,USBC1,B7,DN2_B7*%
X183977558Y-117000000D03*
%TO.P,USBC1,B8,SBU2_B8*%
%TO.N,unconnected-(USBC1-SBU2-PadB8)*%
X182977558Y-117000000D03*
%TD*%
D12*
%TO.P,C7,1*%
%TO.N,/4.4V OUT*%
X196720000Y-105420000D03*
%TO.P,C7,2*%
%TO.N,GND*%
X196720000Y-104460000D03*
%TD*%
%TO.P,C6,1*%
%TO.N,/4.4V OUT*%
X195660000Y-105490000D03*
%TO.P,C6,2*%
%TO.N,GND*%
X195660000Y-104530000D03*
%TD*%
D23*
%TO.P,R4,1*%
%TO.N,/5V IN*%
X184402743Y-111570000D03*
%TO.P,R4,2*%
%TO.N,Net-(D1-A)*%
X183382743Y-111570000D03*
%TD*%
D40*
%TO.N,GND*%
X199600000Y-112000000D03*
D41*
X190850000Y-109990000D03*
D40*
X183640000Y-106910000D03*
X184340000Y-106910000D03*
X182952743Y-105590000D03*
X188000000Y-117000000D03*
D42*
X186490000Y-101240000D03*
D40*
X188967257Y-102625000D03*
X181162743Y-105500000D03*
X196800000Y-103400000D03*
X188000000Y-113400000D03*
X193910000Y-108550000D03*
X197000000Y-107700000D03*
X184352743Y-106290000D03*
X195800000Y-103400000D03*
X182952743Y-106290000D03*
X185040000Y-106910000D03*
X197800000Y-103400000D03*
X195000000Y-111600000D03*
X180380790Y-108980790D03*
X196300000Y-107700000D03*
X182060543Y-109460543D03*
X186600000Y-113400000D03*
X188410000Y-108050000D03*
X184352743Y-105590000D03*
X197000000Y-108400000D03*
X196300000Y-108400000D03*
X181592743Y-103920000D03*
X182222743Y-106290000D03*
X183652743Y-105590000D03*
X189060000Y-104260000D03*
X185052743Y-105590000D03*
X185732743Y-106290000D03*
X181527724Y-117000000D03*
X185052743Y-106290000D03*
X183652743Y-106290000D03*
X182940000Y-106910000D03*
X191600000Y-113200000D03*
%TO.N,/CELL-*%
X197371153Y-114780028D03*
X196472426Y-116310027D03*
D43*
X192980000Y-116230030D03*
D40*
%TO.N,Net-(U1-CE)*%
X186402570Y-107907430D03*
X182861656Y-101262846D03*
%TD*%
%TO.N,/3.3V OUT*%
D44*
X198179873Y-109155207D02*
X198200000Y-109155207D01*
X197359760Y-110220113D02*
X198179873Y-109400000D01*
X195930162Y-110220113D02*
X197359760Y-110220113D01*
X195200000Y-109489951D02*
X195930162Y-110220113D01*
X203000000Y-116820000D02*
X201700000Y-115520000D01*
X196317380Y-110614953D02*
X196317380Y-110250113D01*
X198179873Y-109400000D02*
X198179873Y-109155207D01*
X196317380Y-110250113D02*
X196347380Y-110220113D01*
X197377380Y-110181231D02*
X197402939Y-110155672D01*
X201700000Y-115520000D02*
X201700000Y-112920127D01*
X197377380Y-110614953D02*
X197377380Y-110181231D01*
X198179873Y-109400000D02*
X199089937Y-110310063D01*
X195200000Y-109200000D02*
X195200000Y-109489951D01*
X201700000Y-112920127D02*
X199089937Y-110310063D01*
%TO.N,GND*%
X186552743Y-113447257D02*
X186600000Y-113400000D01*
X187920000Y-102635000D02*
X187920000Y-101972257D01*
X182121086Y-109400000D02*
X182060543Y-109460543D01*
X187920000Y-102635000D02*
X188957257Y-102635000D01*
X183400000Y-110450000D02*
X183000000Y-110050000D01*
X187927774Y-117000000D02*
X188000000Y-117000000D01*
X191679990Y-114380066D02*
X191679990Y-113279990D01*
X188052743Y-114490000D02*
X188052743Y-113452743D01*
D45*
X198179873Y-108055080D02*
X196685080Y-108055080D01*
X195660000Y-104530000D02*
X195660000Y-103540000D01*
D44*
X189310000Y-109990000D02*
X189260000Y-110040000D01*
X186039987Y-105500013D02*
X185590000Y-105950000D01*
X186552743Y-114490000D02*
X186552743Y-113447257D01*
D45*
X195660000Y-103540000D02*
X195800000Y-103400000D01*
D46*
X180800000Y-108561580D02*
X180380790Y-108980790D01*
D45*
X183362802Y-106490000D02*
X183362802Y-106332570D01*
D44*
X188052743Y-113452743D02*
X188000000Y-113400000D01*
D45*
X196720000Y-104460000D02*
X196720000Y-103480000D01*
D44*
X187920000Y-101972257D02*
X187937257Y-101955000D01*
X183000000Y-110050000D02*
X183000000Y-109400000D01*
D45*
X196720000Y-103480000D02*
X196800000Y-103400000D01*
D44*
X191679990Y-113279990D02*
X191600000Y-113200000D01*
X196425047Y-111574953D02*
X196400000Y-111600000D01*
X182720000Y-103200000D02*
X182312743Y-103200000D01*
D45*
X181895263Y-105500013D02*
X181162756Y-105500013D01*
D44*
X185600000Y-101240000D02*
X185440000Y-101400000D01*
D45*
X193915207Y-108555207D02*
X193910000Y-108550000D01*
D44*
X196400000Y-111600000D02*
X195000000Y-111600000D01*
X188062743Y-104250000D02*
X189050000Y-104250000D01*
X186210223Y-105500013D02*
X186039987Y-105500013D01*
X184552743Y-114490000D02*
X186510000Y-114490000D01*
D45*
X196685080Y-108055080D02*
X196680000Y-108050000D01*
D44*
X186510000Y-114490000D02*
X186600000Y-114400000D01*
D46*
X188410000Y-107100000D02*
X188300000Y-106990000D01*
D44*
X187920000Y-103265000D02*
X187920000Y-102635000D01*
X190850000Y-109990000D02*
X189310000Y-109990000D01*
D46*
X180800000Y-108000000D02*
X180800000Y-108561580D01*
D45*
X195180127Y-108555207D02*
X193915207Y-108555207D01*
X198530003Y-111580028D02*
X199180028Y-111580028D01*
X182265212Y-104592469D02*
X181592743Y-103920000D01*
X197770000Y-104530000D02*
X197770000Y-103430000D01*
X183302679Y-106657430D02*
X183362802Y-106657430D01*
X181162756Y-105500013D02*
X181162743Y-105500000D01*
X197770000Y-103430000D02*
X197800000Y-103400000D01*
D44*
X189050000Y-104250000D02*
X189060000Y-104260000D01*
X197377380Y-111574953D02*
X196425047Y-111574953D01*
X182312743Y-103200000D02*
X181592743Y-103920000D01*
D46*
X188410000Y-108050000D02*
X188410000Y-107100000D01*
D44*
X188957257Y-102635000D02*
X188967257Y-102625000D01*
X183000000Y-109400000D02*
X182121086Y-109400000D01*
X186490000Y-101240000D02*
X185600000Y-101240000D01*
D45*
X182302679Y-104592469D02*
X182265212Y-104592469D01*
X199180028Y-111580028D02*
X199600000Y-112000000D01*
X183802807Y-106657430D02*
X184302679Y-106657430D01*
%TO.N,Net-(U2-BAT)*%
D44*
X197270003Y-115560028D02*
X197280003Y-115550028D01*
D46*
X198121153Y-113390028D02*
X198061033Y-113329908D01*
D44*
X198121153Y-115138847D02*
X198121153Y-113390028D01*
X195850003Y-115560028D02*
X197270003Y-115560028D01*
D46*
X198061033Y-113329908D02*
X197000000Y-113329908D01*
D44*
X197280003Y-115550028D02*
X197709972Y-115550028D01*
X197709972Y-115550028D02*
X198121153Y-115138847D01*
%TO.N,/CELL-*%
X197371153Y-113971059D02*
X197330000Y-113929906D01*
X195850003Y-116520028D02*
X196262425Y-116520028D01*
X191679990Y-116279990D02*
X192930040Y-116279990D01*
X196262425Y-116520028D02*
X196472426Y-116310027D01*
X192930040Y-116279990D02*
X192980000Y-116230030D01*
X197371153Y-114780028D02*
X197371153Y-113971059D01*
%TO.N,Net-(D2-K)*%
D45*
X180982743Y-111668232D02*
X180982743Y-110291768D01*
X180982743Y-109689814D02*
X182132628Y-108539929D01*
X180115243Y-113150000D02*
X180982743Y-112282500D01*
X182742684Y-108539929D02*
X182742684Y-107907430D01*
X180982743Y-110291768D02*
X180982743Y-109689814D01*
X182132628Y-108539929D02*
X182742684Y-108539929D01*
X182742684Y-107907430D02*
X182802807Y-107907430D01*
X180982743Y-112282500D02*
X180982743Y-111668232D01*
%TO.N,Net-(D2-A)*%
X182470243Y-112670000D02*
X181990243Y-113150000D01*
X183422743Y-112670000D02*
X182470243Y-112670000D01*
%TO.N,/4.4V OUT*%
D46*
X184302679Y-104592469D02*
X183802807Y-104592469D01*
X183302679Y-104592469D02*
X183802807Y-104592469D01*
D44*
X189220000Y-100420000D02*
X195355826Y-106555826D01*
X195180127Y-107055080D02*
X195180127Y-107990209D01*
X195355826Y-106555826D02*
X196021554Y-105890098D01*
X183312743Y-102000000D02*
X184892743Y-100420000D01*
X196021554Y-105890098D02*
X196730000Y-105890098D01*
X195180127Y-107055080D02*
X195180127Y-106731525D01*
X197770000Y-105490000D02*
X197738596Y-105490000D01*
X183680000Y-103200000D02*
X183680000Y-102280000D01*
X198179873Y-106731473D02*
X198179873Y-106955207D01*
X183680000Y-104480000D02*
X183800000Y-104600000D01*
X197338498Y-105890098D02*
X198179873Y-106731473D01*
X183680000Y-103200000D02*
X183680000Y-104480000D01*
X196720000Y-105420000D02*
X196720000Y-105880098D01*
X184892743Y-100420000D02*
X189220000Y-100420000D01*
X197738596Y-105490000D02*
X197338498Y-105890098D01*
X196730000Y-105890098D02*
X197338498Y-105890098D01*
X196720000Y-105880098D02*
X196730000Y-105890098D01*
X195180127Y-106731525D02*
X195355826Y-106555826D01*
X195660000Y-105490000D02*
X195660000Y-105528544D01*
X183680000Y-102280000D02*
X183400000Y-102000000D01*
X195660000Y-105528544D02*
X196021554Y-105890098D01*
%TO.N,Net-(U1-TMR)*%
D46*
X184802807Y-103574936D02*
X185302743Y-103075000D01*
X184802807Y-104592469D02*
X184802807Y-103574936D01*
%TO.N,Net-(U1-VREF)*%
X180782743Y-107000000D02*
X181895149Y-107000000D01*
X181895149Y-107000000D02*
X181895263Y-106999886D01*
%TO.N,Net-(U2-V-)*%
D45*
X197296147Y-112840028D02*
X198290003Y-112840028D01*
X198290003Y-112840028D02*
X198530003Y-112600028D01*
%TO.N,Net-(U1-DPPM)*%
X186900000Y-103265000D02*
X186900000Y-103522500D01*
X186090273Y-103959970D02*
X185362802Y-103959970D01*
X186930000Y-103235000D02*
X186900000Y-103265000D01*
X185302679Y-104020093D02*
X185302679Y-104592469D01*
X185362802Y-103959970D02*
X185302679Y-104020093D01*
X186792743Y-103257500D02*
X186090273Y-103959970D01*
X186930000Y-102015000D02*
X186930000Y-103235000D01*
%TO.N,Net-(U3-L1)*%
D46*
X199392373Y-107555207D02*
X198179873Y-107555207D01*
X199680000Y-107267580D02*
X199392373Y-107555207D01*
%TO.N,Net-(U3-L2)*%
X199680000Y-108842580D02*
X199392627Y-108555207D01*
X199392627Y-108555207D02*
X198179873Y-108555207D01*
%TO.N,/5V IN*%
D44*
X183800000Y-109000000D02*
X183489929Y-108689929D01*
D46*
X183358195Y-108689929D02*
X183302807Y-108634541D01*
X182330000Y-117010000D02*
X182330000Y-117669099D01*
X183055244Y-118400000D02*
X186400000Y-118400000D01*
X182330000Y-117669099D02*
X183055244Y-118394343D01*
X183055244Y-118394343D02*
X183055244Y-118400000D01*
D44*
X183800000Y-109400000D02*
X183800000Y-109000000D01*
X182327571Y-117000000D02*
X182327571Y-114916228D01*
X184402743Y-111570000D02*
X184402743Y-110202743D01*
X184402743Y-112630000D02*
X184442743Y-112670000D01*
D46*
X186400000Y-118400000D02*
X186980000Y-117820000D01*
D44*
X184360000Y-109960000D02*
X183800000Y-109400000D01*
X184442743Y-112801056D02*
X184442743Y-112670000D01*
X184360000Y-110450000D02*
X184360000Y-109960000D01*
X184402743Y-111570000D02*
X184402743Y-112630000D01*
D46*
X183302807Y-108634541D02*
X183302807Y-107800000D01*
X186980000Y-117820000D02*
X186980000Y-117100000D01*
D44*
X183489929Y-108689929D02*
X183358195Y-108689929D01*
X182327571Y-114916228D02*
X184442743Y-112801056D01*
%TO.N,Net-(USBC1-CC1)*%
D45*
X184067558Y-115510000D02*
X183477686Y-116099872D01*
X184552743Y-115510000D02*
X184067558Y-115510000D01*
X183477686Y-116099872D02*
X183477686Y-117000000D01*
%TO.N,Net-(U1-TS)*%
D46*
X186210274Y-104592469D02*
X186552743Y-104250000D01*
X185802807Y-104592469D02*
X186210274Y-104592469D01*
X186552743Y-104250000D02*
X187042743Y-104250000D01*
%TO.N,/CELL+*%
D44*
X187400000Y-110000000D02*
X186089929Y-108689929D01*
X189552743Y-112152743D02*
X189552743Y-115902743D01*
X195000000Y-119600000D02*
X197200000Y-117400000D01*
D46*
X184879878Y-108689929D02*
X184779878Y-108589929D01*
D44*
X186089929Y-108689929D02*
X184879878Y-108689929D01*
X187400000Y-110000000D02*
X189552743Y-112152743D01*
X193250000Y-119600000D02*
X195000000Y-119600000D01*
D46*
X184412802Y-108589929D02*
X184302679Y-108479806D01*
D44*
X197200000Y-117400000D02*
X197200000Y-116600000D01*
D46*
X184779878Y-108589929D02*
X184412802Y-108589929D01*
X184287819Y-108000000D02*
X184302679Y-108000000D01*
D44*
X189552743Y-115902743D02*
X193250000Y-119600000D01*
D46*
X184302679Y-108479806D02*
X184302679Y-108000000D01*
X184195249Y-107907430D02*
X184287819Y-108000000D01*
X183802807Y-107907430D02*
X184195249Y-107907430D01*
%TO.N,Net-(Q1-G1)*%
D45*
X195420181Y-113339901D02*
X196023859Y-113339901D01*
X194380016Y-114380066D02*
X195420181Y-113339901D01*
%TO.N,Net-(Q1-G2)*%
X195130016Y-116279990D02*
X195240003Y-116170003D01*
X195240003Y-116170003D02*
X195240003Y-114623884D01*
X195240003Y-114623884D02*
X196023859Y-113840028D01*
X194380016Y-116279990D02*
X195130016Y-116279990D01*
%TO.N,Net-(U1-ISET1)*%
D46*
X187292743Y-107000000D02*
X186210337Y-107000000D01*
X186210337Y-107000000D02*
X186210223Y-106999886D01*
%TO.N,Net-(U1-CE)*%
D44*
X185802807Y-107907430D02*
X186402570Y-107907430D01*
X182360000Y-101764502D02*
X182360000Y-101850000D01*
X182861656Y-101262846D02*
X182360000Y-101764502D01*
X186402570Y-107907430D02*
X184902679Y-107907430D01*
%TO.N,Net-(D1-K)*%
D45*
X180195243Y-110014866D02*
X182302679Y-107907430D01*
X180195243Y-110980000D02*
X180195243Y-110014866D01*
%TO.N,Net-(D1-A)*%
X183382743Y-111570000D02*
X182660243Y-111570000D01*
X182660243Y-111570000D02*
X182070243Y-110980000D01*
%TO.N,Net-(USBC1-CC2)*%
X186477686Y-117000000D02*
X186477686Y-115585057D01*
X186477686Y-115585057D02*
X186552743Y-115510000D01*
%TO.N,Net-(R15-Pad1)*%
D44*
X188052743Y-115510000D02*
X188852743Y-116310000D01*
X188852743Y-116310000D02*
X188852743Y-122200000D01*
D45*
X180402501Y-121948184D02*
X180402501Y-117768352D01*
D44*
X180652743Y-122200000D02*
X180452743Y-122000000D01*
X188852743Y-122200000D02*
X180652743Y-122200000D01*
X180452743Y-122000000D02*
X180452743Y-117600000D01*
%TO.N,Net-(Q1-D1{slash}D2-Pad2)*%
X191679990Y-115330028D02*
X194380016Y-115330028D01*
%TO.N,Net-(USBC1-DN1)*%
D45*
X184477686Y-117000000D02*
X184977558Y-117000000D01*
%TO.N,Net-(USBC1-DN2)*%
X183927686Y-117824943D02*
X183927686Y-117474943D01*
X184052743Y-117950000D02*
X183927686Y-117824943D01*
X185427558Y-117950000D02*
X184052743Y-117950000D01*
X185477686Y-117000000D02*
X185477686Y-117899872D01*
X185477686Y-117899872D02*
X185427558Y-117950000D01*
%TD*%
M02*
