%TF.GenerationSoftware,KiCad,Pcbnew,10.0.1*%
%TF.CreationDate,2026-05-12T20:21:21-04:00*%
%TF.ProjectId,chargingCircuit,63686172-6769-46e6-9743-697263756974,rev?*%
%TF.SameCoordinates,Original*%
%TF.FileFunction,Legend,Top*%
%TF.FilePolarity,Positive*%
%FSLAX46Y46*%
G04 Gerber Fmt 4.6, Leading zero omitted, Abs format (unit mm)*
G04 Created by KiCad (PCBNEW 10.0.1) date 2026-05-12 20:21:21*
%MOMM*%
%LPD*%
G01*
G04 APERTURE LIST*
G04 Aperture macros list*
%AMRoundRect*
0 Rectangle with rounded corners*
0 $1 Rounding radius*
0 $2 $3 $4 $5 $6 $7 $8 $9 X,Y pos of 4 corners*
0 Add a 4 corners polygon primitive as box body*
4,1,4,$2,$3,$4,$5,$6,$7,$8,$9,$2,$3,0*
0 Add four circle primitives for the rounded corners*
1,1,$1+$1,$2,$3*
1,1,$1+$1,$4,$5*
1,1,$1+$1,$6,$7*
1,1,$1+$1,$8,$9*
0 Add four rect primitives between the rounded corners*
20,1,$1+$1,$2,$3,$4,$5,0*
20,1,$1+$1,$4,$5,$6,$7,0*
20,1,$1+$1,$6,$7,$8,$9,0*
20,1,$1+$1,$8,$9,$2,$3,0*%
%AMFreePoly0*
4,1,22,-0.180036,0.885116,0.179985,0.885116,0.179985,1.715113,0.469977,1.715113,0.469977,0.885116,0.759970,0.885116,0.759970,-0.884887,0.469977,-0.884887,0.469977,-1.704902,0.179985,-1.704902,0.179985,-0.884887,-0.180036,-0.884887,-0.180036,-1.704902,-0.470028,-1.704902,-0.470028,-0.884887,-0.760020,-0.884887,-0.760020,0.895098,-0.759995,0.895123,-0.470028,0.895098,-0.470028,1.715113,
-0.180036,1.715113,-0.180036,0.885116,-0.180036,0.885116,$1*%
%AMFreePoly1*
4,1,21,1.524994,0.375083,2.705004,0.375083,2.705004,0.175083,2.064999,0.175083,2.064999,-0.174930,2.705004,-0.174930,2.705004,-0.374930,1.524994,-0.374930,1.524994,-1.024917,-1.524994,-1.024917,-1.524994,-0.374930,-2.705004,-0.374930,-2.705004,-0.174930,-2.315011,-0.174930,-2.315011,0.175083,-2.705004,0.175083,-2.705004,0.380086,-1.524994,0.375083,-1.524994,1.025070,1.524994,1.025070,
1.524994,0.375083,1.524994,0.375083,$1*%
%AMFreePoly2*
4,1,9,0.299924,-0.649936,-0.000051,-0.649936,-0.000051,-0.650089,-0.300051,-0.650089,-0.300051,0.649936,-0.000076,0.649936,-0.000076,0.650089,0.299924,0.650089,0.299924,-0.649936,0.299924,-0.649936,$1*%
%AMFreePoly3*
4,1,9,0.300076,-0.650038,0.000127,-0.650038,0.000127,-0.650064,-0.299898,-0.650064,-0.299898,0.649911,0.000051,0.649911,0.000051,0.649936,0.300076,0.649936,0.300076,-0.650038,0.300076,-0.650038,$1*%
%AMFreePoly4*
4,1,5,0.299873,-0.649886,-0.300152,-0.649886,-0.300152,0.650089,0.299873,0.650089,0.299873,-0.649886,0.299873,-0.649886,$1*%
G04 Aperture macros list end*
%ADD10C,0.100000*%
%ADD11C,0.200000*%
%ADD12C,0.500000*%
%ADD13C,0.150000*%
%ADD14C,0.120000*%
%ADD15C,0.000000*%
%ADD16C,0.150013*%
%ADD17C,0.130378*%
%ADD18C,0.254001*%
%ADD19C,0.200660*%
%ADD20C,0.190500*%
%ADD21C,0.152400*%
%ADD22C,0.149937*%
%ADD23C,0.254000*%
%ADD24RoundRect,0.140000X-0.170000X0.140000X-0.170000X-0.140000X0.170000X-0.140000X0.170000X0.140000X0*%
%ADD25RoundRect,0.243750X-0.243750X-0.456250X0.243750X-0.456250X0.243750X0.456250X-0.243750X0.456250X0*%
%ADD26RoundRect,0.140000X0.170000X-0.140000X0.170000X0.140000X-0.170000X0.140000X-0.170000X-0.140000X0*%
%ADD27RoundRect,0.200000X0.275000X-0.200000X0.275000X0.200000X-0.275000X0.200000X-0.275000X-0.200000X0*%
%ADD28R,1.700000X1.700000*%
%ADD29C,1.700000*%
%ADD30RoundRect,0.135000X0.185000X-0.135000X0.185000X0.135000X-0.185000X0.135000X-0.185000X-0.135000X0*%
%ADD31RoundRect,0.140000X-0.140000X-0.170000X0.140000X-0.170000X0.140000X0.170000X-0.140000X0.170000X0*%
%ADD32RoundRect,0.218750X-0.256250X0.218750X-0.256250X-0.218750X0.256250X-0.218750X0.256250X0.218750X0*%
%ADD33R,0.849886X0.240005*%
%ADD34R,0.800000X0.229997*%
%ADD35FreePoly0,180.000000*%
%ADD36RoundRect,0.140000X0.140000X0.170000X-0.140000X0.170000X-0.140000X-0.170000X0.140000X-0.170000X0*%
%ADD37RoundRect,0.135000X0.135000X0.185000X-0.135000X0.185000X-0.135000X-0.185000X0.135000X-0.185000X0*%
%ADD38RoundRect,0.135000X-0.135000X-0.185000X0.135000X-0.185000X0.135000X0.185000X-0.135000X0.185000X0*%
%ADD39O,1.700000X1.700000*%
%ADD40R,0.840005X0.280010*%
%ADD41R,0.750013X0.280010*%
%ADD42RoundRect,0.135000X-0.185000X0.135000X-0.185000X-0.135000X0.185000X-0.135000X0.185000X0.135000X0*%
%ADD43R,0.664999X0.335992*%
%ADD44R,0.280010X0.664999*%
%ADD45FreePoly1,0.000000*%
%ADD46RoundRect,0.250000X-0.250000X-0.475000X0.250000X-0.475000X0.250000X0.475000X-0.250000X0.475000X0*%
%ADD47R,1.100000X0.600000*%
%ADD48C,0.750013*%
%ADD49O,1.200000X2.000000*%
%ADD50O,1.200000X1.800000*%
%ADD51FreePoly2,0.000000*%
%ADD52FreePoly3,0.000000*%
%ADD53R,0.300000X1.300000*%
%ADD54FreePoly4,0.000000*%
G04 APERTURE END LIST*
D10*
X186656265Y-82208940D02*
X186656265Y-81408940D01*
X186656265Y-81408940D02*
X186961027Y-81408940D01*
X186961027Y-81408940D02*
X187037217Y-81447035D01*
X187037217Y-81447035D02*
X187075312Y-81485130D01*
X187075312Y-81485130D02*
X187113408Y-81561321D01*
X187113408Y-81561321D02*
X187113408Y-81675606D01*
X187113408Y-81675606D02*
X187075312Y-81751797D01*
X187075312Y-81751797D02*
X187037217Y-81789892D01*
X187037217Y-81789892D02*
X186961027Y-81827987D01*
X186961027Y-81827987D02*
X186656265Y-81827987D01*
X187456265Y-82208940D02*
X187456265Y-81675606D01*
X187456265Y-81408940D02*
X187418169Y-81447035D01*
X187418169Y-81447035D02*
X187456265Y-81485130D01*
X187456265Y-81485130D02*
X187494360Y-81447035D01*
X187494360Y-81447035D02*
X187456265Y-81408940D01*
X187456265Y-81408940D02*
X187456265Y-81485130D01*
X188141979Y-82170845D02*
X188065788Y-82208940D01*
X188065788Y-82208940D02*
X187913407Y-82208940D01*
X187913407Y-82208940D02*
X187837217Y-82170845D01*
X187837217Y-82170845D02*
X187799121Y-82094654D01*
X187799121Y-82094654D02*
X187799121Y-81789892D01*
X187799121Y-81789892D02*
X187837217Y-81713702D01*
X187837217Y-81713702D02*
X187913407Y-81675606D01*
X187913407Y-81675606D02*
X188065788Y-81675606D01*
X188065788Y-81675606D02*
X188141979Y-81713702D01*
X188141979Y-81713702D02*
X188180074Y-81789892D01*
X188180074Y-81789892D02*
X188180074Y-81866083D01*
X188180074Y-81866083D02*
X187799121Y-81942273D01*
X188522931Y-82208940D02*
X188522931Y-81675606D01*
X188522931Y-81827987D02*
X188561026Y-81751797D01*
X188561026Y-81751797D02*
X188599121Y-81713702D01*
X188599121Y-81713702D02*
X188675312Y-81675606D01*
X188675312Y-81675606D02*
X188751502Y-81675606D01*
X189018169Y-82208940D02*
X189018169Y-81675606D01*
X189018169Y-81827987D02*
X189056264Y-81751797D01*
X189056264Y-81751797D02*
X189094359Y-81713702D01*
X189094359Y-81713702D02*
X189170550Y-81675606D01*
X189170550Y-81675606D02*
X189246740Y-81675606D01*
X189818169Y-82170845D02*
X189741978Y-82208940D01*
X189741978Y-82208940D02*
X189589597Y-82208940D01*
X189589597Y-82208940D02*
X189513407Y-82170845D01*
X189513407Y-82170845D02*
X189475311Y-82094654D01*
X189475311Y-82094654D02*
X189475311Y-81789892D01*
X189475311Y-81789892D02*
X189513407Y-81713702D01*
X189513407Y-81713702D02*
X189589597Y-81675606D01*
X189589597Y-81675606D02*
X189741978Y-81675606D01*
X189741978Y-81675606D02*
X189818169Y-81713702D01*
X189818169Y-81713702D02*
X189856264Y-81789892D01*
X189856264Y-81789892D02*
X189856264Y-81866083D01*
X189856264Y-81866083D02*
X189475311Y-81942273D01*
X190770549Y-81980368D02*
X191151502Y-81980368D01*
X190694359Y-82208940D02*
X190961026Y-81408940D01*
X190961026Y-81408940D02*
X191227692Y-82208940D01*
X191418168Y-81675606D02*
X191570549Y-82208940D01*
X191570549Y-82208940D02*
X191722930Y-81827987D01*
X191722930Y-81827987D02*
X191875311Y-82208940D01*
X191875311Y-82208940D02*
X192027692Y-81675606D01*
X192675311Y-82208940D02*
X192675311Y-81789892D01*
X192675311Y-81789892D02*
X192637216Y-81713702D01*
X192637216Y-81713702D02*
X192561025Y-81675606D01*
X192561025Y-81675606D02*
X192408644Y-81675606D01*
X192408644Y-81675606D02*
X192332454Y-81713702D01*
X192675311Y-82170845D02*
X192599120Y-82208940D01*
X192599120Y-82208940D02*
X192408644Y-82208940D01*
X192408644Y-82208940D02*
X192332454Y-82170845D01*
X192332454Y-82170845D02*
X192294358Y-82094654D01*
X192294358Y-82094654D02*
X192294358Y-82018464D01*
X192294358Y-82018464D02*
X192332454Y-81942273D01*
X192332454Y-81942273D02*
X192408644Y-81904178D01*
X192408644Y-81904178D02*
X192599120Y-81904178D01*
X192599120Y-81904178D02*
X192675311Y-81866083D01*
X193399121Y-82208940D02*
X193399121Y-81408940D01*
X193399121Y-82170845D02*
X193322930Y-82208940D01*
X193322930Y-82208940D02*
X193170549Y-82208940D01*
X193170549Y-82208940D02*
X193094359Y-82170845D01*
X193094359Y-82170845D02*
X193056264Y-82132749D01*
X193056264Y-82132749D02*
X193018168Y-82056559D01*
X193018168Y-82056559D02*
X193018168Y-81827987D01*
X193018168Y-81827987D02*
X193056264Y-81751797D01*
X193056264Y-81751797D02*
X193094359Y-81713702D01*
X193094359Y-81713702D02*
X193170549Y-81675606D01*
X193170549Y-81675606D02*
X193322930Y-81675606D01*
X193322930Y-81675606D02*
X193399121Y-81713702D01*
X187075312Y-83496895D02*
X186618169Y-83496895D01*
X186846741Y-83496895D02*
X186846741Y-82696895D01*
X186846741Y-82696895D02*
X186770550Y-82811180D01*
X186770550Y-82811180D02*
X186694360Y-82887371D01*
X186694360Y-82887371D02*
X186618169Y-82925466D01*
X187837217Y-83496895D02*
X187380074Y-83496895D01*
X187608646Y-83496895D02*
X187608646Y-82696895D01*
X187608646Y-82696895D02*
X187532455Y-82811180D01*
X187532455Y-82811180D02*
X187456265Y-82887371D01*
X187456265Y-82887371D02*
X187380074Y-82925466D01*
X188751503Y-82658800D02*
X188065789Y-83687371D01*
X189170551Y-82696895D02*
X189246741Y-82696895D01*
X189246741Y-82696895D02*
X189322932Y-82734990D01*
X189322932Y-82734990D02*
X189361027Y-82773085D01*
X189361027Y-82773085D02*
X189399122Y-82849276D01*
X189399122Y-82849276D02*
X189437217Y-83001657D01*
X189437217Y-83001657D02*
X189437217Y-83192133D01*
X189437217Y-83192133D02*
X189399122Y-83344514D01*
X189399122Y-83344514D02*
X189361027Y-83420704D01*
X189361027Y-83420704D02*
X189322932Y-83458800D01*
X189322932Y-83458800D02*
X189246741Y-83496895D01*
X189246741Y-83496895D02*
X189170551Y-83496895D01*
X189170551Y-83496895D02*
X189094360Y-83458800D01*
X189094360Y-83458800D02*
X189056265Y-83420704D01*
X189056265Y-83420704D02*
X189018170Y-83344514D01*
X189018170Y-83344514D02*
X188980074Y-83192133D01*
X188980074Y-83192133D02*
X188980074Y-83001657D01*
X188980074Y-83001657D02*
X189018170Y-82849276D01*
X189018170Y-82849276D02*
X189056265Y-82773085D01*
X189056265Y-82773085D02*
X189094360Y-82734990D01*
X189094360Y-82734990D02*
X189170551Y-82696895D01*
X190161027Y-82696895D02*
X189780075Y-82696895D01*
X189780075Y-82696895D02*
X189741979Y-83077847D01*
X189741979Y-83077847D02*
X189780075Y-83039752D01*
X189780075Y-83039752D02*
X189856265Y-83001657D01*
X189856265Y-83001657D02*
X190046741Y-83001657D01*
X190046741Y-83001657D02*
X190122932Y-83039752D01*
X190122932Y-83039752D02*
X190161027Y-83077847D01*
X190161027Y-83077847D02*
X190199122Y-83154038D01*
X190199122Y-83154038D02*
X190199122Y-83344514D01*
X190199122Y-83344514D02*
X190161027Y-83420704D01*
X190161027Y-83420704D02*
X190122932Y-83458800D01*
X190122932Y-83458800D02*
X190046741Y-83496895D01*
X190046741Y-83496895D02*
X189856265Y-83496895D01*
X189856265Y-83496895D02*
X189780075Y-83458800D01*
X189780075Y-83458800D02*
X189741979Y-83420704D01*
X191113408Y-82658800D02*
X190427694Y-83687371D01*
X191341979Y-82773085D02*
X191380075Y-82734990D01*
X191380075Y-82734990D02*
X191456265Y-82696895D01*
X191456265Y-82696895D02*
X191646741Y-82696895D01*
X191646741Y-82696895D02*
X191722932Y-82734990D01*
X191722932Y-82734990D02*
X191761027Y-82773085D01*
X191761027Y-82773085D02*
X191799122Y-82849276D01*
X191799122Y-82849276D02*
X191799122Y-82925466D01*
X191799122Y-82925466D02*
X191761027Y-83039752D01*
X191761027Y-83039752D02*
X191303884Y-83496895D01*
X191303884Y-83496895D02*
X191799122Y-83496895D01*
X192294361Y-82696895D02*
X192370551Y-82696895D01*
X192370551Y-82696895D02*
X192446742Y-82734990D01*
X192446742Y-82734990D02*
X192484837Y-82773085D01*
X192484837Y-82773085D02*
X192522932Y-82849276D01*
X192522932Y-82849276D02*
X192561027Y-83001657D01*
X192561027Y-83001657D02*
X192561027Y-83192133D01*
X192561027Y-83192133D02*
X192522932Y-83344514D01*
X192522932Y-83344514D02*
X192484837Y-83420704D01*
X192484837Y-83420704D02*
X192446742Y-83458800D01*
X192446742Y-83458800D02*
X192370551Y-83496895D01*
X192370551Y-83496895D02*
X192294361Y-83496895D01*
X192294361Y-83496895D02*
X192218170Y-83458800D01*
X192218170Y-83458800D02*
X192180075Y-83420704D01*
X192180075Y-83420704D02*
X192141980Y-83344514D01*
X192141980Y-83344514D02*
X192103884Y-83192133D01*
X192103884Y-83192133D02*
X192103884Y-83001657D01*
X192103884Y-83001657D02*
X192141980Y-82849276D01*
X192141980Y-82849276D02*
X192180075Y-82773085D01*
X192180075Y-82773085D02*
X192218170Y-82734990D01*
X192218170Y-82734990D02*
X192294361Y-82696895D01*
X192865789Y-82773085D02*
X192903885Y-82734990D01*
X192903885Y-82734990D02*
X192980075Y-82696895D01*
X192980075Y-82696895D02*
X193170551Y-82696895D01*
X193170551Y-82696895D02*
X193246742Y-82734990D01*
X193246742Y-82734990D02*
X193284837Y-82773085D01*
X193284837Y-82773085D02*
X193322932Y-82849276D01*
X193322932Y-82849276D02*
X193322932Y-82925466D01*
X193322932Y-82925466D02*
X193284837Y-83039752D01*
X193284837Y-83039752D02*
X192827694Y-83496895D01*
X192827694Y-83496895D02*
X193322932Y-83496895D01*
X194008647Y-82696895D02*
X193856266Y-82696895D01*
X193856266Y-82696895D02*
X193780075Y-82734990D01*
X193780075Y-82734990D02*
X193741980Y-82773085D01*
X193741980Y-82773085D02*
X193665790Y-82887371D01*
X193665790Y-82887371D02*
X193627694Y-83039752D01*
X193627694Y-83039752D02*
X193627694Y-83344514D01*
X193627694Y-83344514D02*
X193665790Y-83420704D01*
X193665790Y-83420704D02*
X193703885Y-83458800D01*
X193703885Y-83458800D02*
X193780075Y-83496895D01*
X193780075Y-83496895D02*
X193932456Y-83496895D01*
X193932456Y-83496895D02*
X194008647Y-83458800D01*
X194008647Y-83458800D02*
X194046742Y-83420704D01*
X194046742Y-83420704D02*
X194084837Y-83344514D01*
X194084837Y-83344514D02*
X194084837Y-83154038D01*
X194084837Y-83154038D02*
X194046742Y-83077847D01*
X194046742Y-83077847D02*
X194008647Y-83039752D01*
X194008647Y-83039752D02*
X193932456Y-83001657D01*
X193932456Y-83001657D02*
X193780075Y-83001657D01*
X193780075Y-83001657D02*
X193703885Y-83039752D01*
X193703885Y-83039752D02*
X193665790Y-83077847D01*
X193665790Y-83077847D02*
X193627694Y-83154038D01*
D11*
X183109523Y-77657275D02*
X183728570Y-77657275D01*
X183728570Y-77657275D02*
X183395237Y-78038227D01*
X183395237Y-78038227D02*
X183538094Y-78038227D01*
X183538094Y-78038227D02*
X183633332Y-78085846D01*
X183633332Y-78085846D02*
X183680951Y-78133465D01*
X183680951Y-78133465D02*
X183728570Y-78228703D01*
X183728570Y-78228703D02*
X183728570Y-78466798D01*
X183728570Y-78466798D02*
X183680951Y-78562036D01*
X183680951Y-78562036D02*
X183633332Y-78609656D01*
X183633332Y-78609656D02*
X183538094Y-78657275D01*
X183538094Y-78657275D02*
X183252380Y-78657275D01*
X183252380Y-78657275D02*
X183157142Y-78609656D01*
X183157142Y-78609656D02*
X183109523Y-78562036D01*
X184157142Y-78562036D02*
X184204761Y-78609656D01*
X184204761Y-78609656D02*
X184157142Y-78657275D01*
X184157142Y-78657275D02*
X184109523Y-78609656D01*
X184109523Y-78609656D02*
X184157142Y-78562036D01*
X184157142Y-78562036D02*
X184157142Y-78657275D01*
X184538094Y-77657275D02*
X185204760Y-77657275D01*
X185204760Y-77657275D02*
X184776189Y-78657275D01*
X185442856Y-77657275D02*
X185776189Y-78657275D01*
X185776189Y-78657275D02*
X186109522Y-77657275D01*
X187680951Y-78657275D02*
X187204761Y-78657275D01*
X187204761Y-78657275D02*
X187204761Y-77657275D01*
X188014285Y-78657275D02*
X188014285Y-77990608D01*
X188014285Y-77657275D02*
X187966666Y-77704894D01*
X187966666Y-77704894D02*
X188014285Y-77752513D01*
X188014285Y-77752513D02*
X188061904Y-77704894D01*
X188061904Y-77704894D02*
X188014285Y-77657275D01*
X188014285Y-77657275D02*
X188014285Y-77752513D01*
X188490475Y-77990608D02*
X188490475Y-78990608D01*
X188490475Y-78038227D02*
X188585713Y-77990608D01*
X188585713Y-77990608D02*
X188776189Y-77990608D01*
X188776189Y-77990608D02*
X188871427Y-78038227D01*
X188871427Y-78038227D02*
X188919046Y-78085846D01*
X188919046Y-78085846D02*
X188966665Y-78181084D01*
X188966665Y-78181084D02*
X188966665Y-78466798D01*
X188966665Y-78466798D02*
X188919046Y-78562036D01*
X188919046Y-78562036D02*
X188871427Y-78609656D01*
X188871427Y-78609656D02*
X188776189Y-78657275D01*
X188776189Y-78657275D02*
X188585713Y-78657275D01*
X188585713Y-78657275D02*
X188490475Y-78609656D01*
X189538094Y-78657275D02*
X189442856Y-78609656D01*
X189442856Y-78609656D02*
X189395237Y-78562036D01*
X189395237Y-78562036D02*
X189347618Y-78466798D01*
X189347618Y-78466798D02*
X189347618Y-78181084D01*
X189347618Y-78181084D02*
X189395237Y-78085846D01*
X189395237Y-78085846D02*
X189442856Y-78038227D01*
X189442856Y-78038227D02*
X189538094Y-77990608D01*
X189538094Y-77990608D02*
X189680951Y-77990608D01*
X189680951Y-77990608D02*
X189776189Y-78038227D01*
X189776189Y-78038227D02*
X189823808Y-78085846D01*
X189823808Y-78085846D02*
X189871427Y-78181084D01*
X189871427Y-78181084D02*
X189871427Y-78466798D01*
X189871427Y-78466798D02*
X189823808Y-78562036D01*
X189823808Y-78562036D02*
X189776189Y-78609656D01*
X189776189Y-78609656D02*
X189680951Y-78657275D01*
X189680951Y-78657275D02*
X189538094Y-78657275D01*
X191633332Y-78562036D02*
X191585713Y-78609656D01*
X191585713Y-78609656D02*
X191442856Y-78657275D01*
X191442856Y-78657275D02*
X191347618Y-78657275D01*
X191347618Y-78657275D02*
X191204761Y-78609656D01*
X191204761Y-78609656D02*
X191109523Y-78514417D01*
X191109523Y-78514417D02*
X191061904Y-78419179D01*
X191061904Y-78419179D02*
X191014285Y-78228703D01*
X191014285Y-78228703D02*
X191014285Y-78085846D01*
X191014285Y-78085846D02*
X191061904Y-77895370D01*
X191061904Y-77895370D02*
X191109523Y-77800132D01*
X191109523Y-77800132D02*
X191204761Y-77704894D01*
X191204761Y-77704894D02*
X191347618Y-77657275D01*
X191347618Y-77657275D02*
X191442856Y-77657275D01*
X191442856Y-77657275D02*
X191585713Y-77704894D01*
X191585713Y-77704894D02*
X191633332Y-77752513D01*
X192061904Y-78657275D02*
X192061904Y-77657275D01*
X192490475Y-78657275D02*
X192490475Y-78133465D01*
X192490475Y-78133465D02*
X192442856Y-78038227D01*
X192442856Y-78038227D02*
X192347618Y-77990608D01*
X192347618Y-77990608D02*
X192204761Y-77990608D01*
X192204761Y-77990608D02*
X192109523Y-78038227D01*
X192109523Y-78038227D02*
X192061904Y-78085846D01*
X193395237Y-78657275D02*
X193395237Y-78133465D01*
X193395237Y-78133465D02*
X193347618Y-78038227D01*
X193347618Y-78038227D02*
X193252380Y-77990608D01*
X193252380Y-77990608D02*
X193061904Y-77990608D01*
X193061904Y-77990608D02*
X192966666Y-78038227D01*
X193395237Y-78609656D02*
X193299999Y-78657275D01*
X193299999Y-78657275D02*
X193061904Y-78657275D01*
X193061904Y-78657275D02*
X192966666Y-78609656D01*
X192966666Y-78609656D02*
X192919047Y-78514417D01*
X192919047Y-78514417D02*
X192919047Y-78419179D01*
X192919047Y-78419179D02*
X192966666Y-78323941D01*
X192966666Y-78323941D02*
X193061904Y-78276322D01*
X193061904Y-78276322D02*
X193299999Y-78276322D01*
X193299999Y-78276322D02*
X193395237Y-78228703D01*
X193871428Y-78657275D02*
X193871428Y-77990608D01*
X193871428Y-78181084D02*
X193919047Y-78085846D01*
X193919047Y-78085846D02*
X193966666Y-78038227D01*
X193966666Y-78038227D02*
X194061904Y-77990608D01*
X194061904Y-77990608D02*
X194157142Y-77990608D01*
X194919047Y-77990608D02*
X194919047Y-78800132D01*
X194919047Y-78800132D02*
X194871428Y-78895370D01*
X194871428Y-78895370D02*
X194823809Y-78942989D01*
X194823809Y-78942989D02*
X194728571Y-78990608D01*
X194728571Y-78990608D02*
X194585714Y-78990608D01*
X194585714Y-78990608D02*
X194490476Y-78942989D01*
X194919047Y-78609656D02*
X194823809Y-78657275D01*
X194823809Y-78657275D02*
X194633333Y-78657275D01*
X194633333Y-78657275D02*
X194538095Y-78609656D01*
X194538095Y-78609656D02*
X194490476Y-78562036D01*
X194490476Y-78562036D02*
X194442857Y-78466798D01*
X194442857Y-78466798D02*
X194442857Y-78181084D01*
X194442857Y-78181084D02*
X194490476Y-78085846D01*
X194490476Y-78085846D02*
X194538095Y-78038227D01*
X194538095Y-78038227D02*
X194633333Y-77990608D01*
X194633333Y-77990608D02*
X194823809Y-77990608D01*
X194823809Y-77990608D02*
X194919047Y-78038227D01*
X195776190Y-78609656D02*
X195680952Y-78657275D01*
X195680952Y-78657275D02*
X195490476Y-78657275D01*
X195490476Y-78657275D02*
X195395238Y-78609656D01*
X195395238Y-78609656D02*
X195347619Y-78514417D01*
X195347619Y-78514417D02*
X195347619Y-78133465D01*
X195347619Y-78133465D02*
X195395238Y-78038227D01*
X195395238Y-78038227D02*
X195490476Y-77990608D01*
X195490476Y-77990608D02*
X195680952Y-77990608D01*
X195680952Y-77990608D02*
X195776190Y-78038227D01*
X195776190Y-78038227D02*
X195823809Y-78133465D01*
X195823809Y-78133465D02*
X195823809Y-78228703D01*
X195823809Y-78228703D02*
X195347619Y-78323941D01*
X196252381Y-78657275D02*
X196252381Y-77990608D01*
X196252381Y-78181084D02*
X196300000Y-78085846D01*
X196300000Y-78085846D02*
X196347619Y-78038227D01*
X196347619Y-78038227D02*
X196442857Y-77990608D01*
X196442857Y-77990608D02*
X196538095Y-77990608D01*
X181704761Y-79600552D02*
X182085713Y-79600552D01*
X181847618Y-79267219D02*
X181847618Y-80124361D01*
X181847618Y-80124361D02*
X181895237Y-80219600D01*
X181895237Y-80219600D02*
X181990475Y-80267219D01*
X181990475Y-80267219D02*
X182085713Y-80267219D01*
X182561904Y-80267219D02*
X182466666Y-80219600D01*
X182466666Y-80219600D02*
X182419047Y-80171980D01*
X182419047Y-80171980D02*
X182371428Y-80076742D01*
X182371428Y-80076742D02*
X182371428Y-79791028D01*
X182371428Y-79791028D02*
X182419047Y-79695790D01*
X182419047Y-79695790D02*
X182466666Y-79648171D01*
X182466666Y-79648171D02*
X182561904Y-79600552D01*
X182561904Y-79600552D02*
X182704761Y-79600552D01*
X182704761Y-79600552D02*
X182799999Y-79648171D01*
X182799999Y-79648171D02*
X182847618Y-79695790D01*
X182847618Y-79695790D02*
X182895237Y-79791028D01*
X182895237Y-79791028D02*
X182895237Y-80076742D01*
X182895237Y-80076742D02*
X182847618Y-80171980D01*
X182847618Y-80171980D02*
X182799999Y-80219600D01*
X182799999Y-80219600D02*
X182704761Y-80267219D01*
X182704761Y-80267219D02*
X182561904Y-80267219D01*
X183990476Y-79267219D02*
X184609523Y-79267219D01*
X184609523Y-79267219D02*
X184276190Y-79648171D01*
X184276190Y-79648171D02*
X184419047Y-79648171D01*
X184419047Y-79648171D02*
X184514285Y-79695790D01*
X184514285Y-79695790D02*
X184561904Y-79743409D01*
X184561904Y-79743409D02*
X184609523Y-79838647D01*
X184609523Y-79838647D02*
X184609523Y-80076742D01*
X184609523Y-80076742D02*
X184561904Y-80171980D01*
X184561904Y-80171980D02*
X184514285Y-80219600D01*
X184514285Y-80219600D02*
X184419047Y-80267219D01*
X184419047Y-80267219D02*
X184133333Y-80267219D01*
X184133333Y-80267219D02*
X184038095Y-80219600D01*
X184038095Y-80219600D02*
X183990476Y-80171980D01*
X185038095Y-80171980D02*
X185085714Y-80219600D01*
X185085714Y-80219600D02*
X185038095Y-80267219D01*
X185038095Y-80267219D02*
X184990476Y-80219600D01*
X184990476Y-80219600D02*
X185038095Y-80171980D01*
X185038095Y-80171980D02*
X185038095Y-80267219D01*
X185419047Y-79267219D02*
X186038094Y-79267219D01*
X186038094Y-79267219D02*
X185704761Y-79648171D01*
X185704761Y-79648171D02*
X185847618Y-79648171D01*
X185847618Y-79648171D02*
X185942856Y-79695790D01*
X185942856Y-79695790D02*
X185990475Y-79743409D01*
X185990475Y-79743409D02*
X186038094Y-79838647D01*
X186038094Y-79838647D02*
X186038094Y-80076742D01*
X186038094Y-80076742D02*
X185990475Y-80171980D01*
X185990475Y-80171980D02*
X185942856Y-80219600D01*
X185942856Y-80219600D02*
X185847618Y-80267219D01*
X185847618Y-80267219D02*
X185561904Y-80267219D01*
X185561904Y-80267219D02*
X185466666Y-80219600D01*
X185466666Y-80219600D02*
X185419047Y-80171980D01*
X186323809Y-79267219D02*
X186657142Y-80267219D01*
X186657142Y-80267219D02*
X186990475Y-79267219D01*
X188085714Y-80267219D02*
X188085714Y-79267219D01*
X188085714Y-79267219D02*
X188466666Y-79267219D01*
X188466666Y-79267219D02*
X188561904Y-79314838D01*
X188561904Y-79314838D02*
X188609523Y-79362457D01*
X188609523Y-79362457D02*
X188657142Y-79457695D01*
X188657142Y-79457695D02*
X188657142Y-79600552D01*
X188657142Y-79600552D02*
X188609523Y-79695790D01*
X188609523Y-79695790D02*
X188561904Y-79743409D01*
X188561904Y-79743409D02*
X188466666Y-79791028D01*
X188466666Y-79791028D02*
X188085714Y-79791028D01*
X189228571Y-80267219D02*
X189133333Y-80219600D01*
X189133333Y-80219600D02*
X189085714Y-80171980D01*
X189085714Y-80171980D02*
X189038095Y-80076742D01*
X189038095Y-80076742D02*
X189038095Y-79791028D01*
X189038095Y-79791028D02*
X189085714Y-79695790D01*
X189085714Y-79695790D02*
X189133333Y-79648171D01*
X189133333Y-79648171D02*
X189228571Y-79600552D01*
X189228571Y-79600552D02*
X189371428Y-79600552D01*
X189371428Y-79600552D02*
X189466666Y-79648171D01*
X189466666Y-79648171D02*
X189514285Y-79695790D01*
X189514285Y-79695790D02*
X189561904Y-79791028D01*
X189561904Y-79791028D02*
X189561904Y-80076742D01*
X189561904Y-80076742D02*
X189514285Y-80171980D01*
X189514285Y-80171980D02*
X189466666Y-80219600D01*
X189466666Y-80219600D02*
X189371428Y-80267219D01*
X189371428Y-80267219D02*
X189228571Y-80267219D01*
X189895238Y-79600552D02*
X190085714Y-80267219D01*
X190085714Y-80267219D02*
X190276190Y-79791028D01*
X190276190Y-79791028D02*
X190466666Y-80267219D01*
X190466666Y-80267219D02*
X190657142Y-79600552D01*
X191419047Y-80219600D02*
X191323809Y-80267219D01*
X191323809Y-80267219D02*
X191133333Y-80267219D01*
X191133333Y-80267219D02*
X191038095Y-80219600D01*
X191038095Y-80219600D02*
X190990476Y-80124361D01*
X190990476Y-80124361D02*
X190990476Y-79743409D01*
X190990476Y-79743409D02*
X191038095Y-79648171D01*
X191038095Y-79648171D02*
X191133333Y-79600552D01*
X191133333Y-79600552D02*
X191323809Y-79600552D01*
X191323809Y-79600552D02*
X191419047Y-79648171D01*
X191419047Y-79648171D02*
X191466666Y-79743409D01*
X191466666Y-79743409D02*
X191466666Y-79838647D01*
X191466666Y-79838647D02*
X190990476Y-79933885D01*
X191895238Y-80267219D02*
X191895238Y-79600552D01*
X191895238Y-79791028D02*
X191942857Y-79695790D01*
X191942857Y-79695790D02*
X191990476Y-79648171D01*
X191990476Y-79648171D02*
X192085714Y-79600552D01*
X192085714Y-79600552D02*
X192180952Y-79600552D01*
X193228572Y-80219600D02*
X193371429Y-80267219D01*
X193371429Y-80267219D02*
X193609524Y-80267219D01*
X193609524Y-80267219D02*
X193704762Y-80219600D01*
X193704762Y-80219600D02*
X193752381Y-80171980D01*
X193752381Y-80171980D02*
X193800000Y-80076742D01*
X193800000Y-80076742D02*
X193800000Y-79981504D01*
X193800000Y-79981504D02*
X193752381Y-79886266D01*
X193752381Y-79886266D02*
X193704762Y-79838647D01*
X193704762Y-79838647D02*
X193609524Y-79791028D01*
X193609524Y-79791028D02*
X193419048Y-79743409D01*
X193419048Y-79743409D02*
X193323810Y-79695790D01*
X193323810Y-79695790D02*
X193276191Y-79648171D01*
X193276191Y-79648171D02*
X193228572Y-79552933D01*
X193228572Y-79552933D02*
X193228572Y-79457695D01*
X193228572Y-79457695D02*
X193276191Y-79362457D01*
X193276191Y-79362457D02*
X193323810Y-79314838D01*
X193323810Y-79314838D02*
X193419048Y-79267219D01*
X193419048Y-79267219D02*
X193657143Y-79267219D01*
X193657143Y-79267219D02*
X193800000Y-79314838D01*
X194657143Y-79600552D02*
X194657143Y-80267219D01*
X194228572Y-79600552D02*
X194228572Y-80124361D01*
X194228572Y-80124361D02*
X194276191Y-80219600D01*
X194276191Y-80219600D02*
X194371429Y-80267219D01*
X194371429Y-80267219D02*
X194514286Y-80267219D01*
X194514286Y-80267219D02*
X194609524Y-80219600D01*
X194609524Y-80219600D02*
X194657143Y-80171980D01*
X195133334Y-79600552D02*
X195133334Y-80600552D01*
X195133334Y-79648171D02*
X195228572Y-79600552D01*
X195228572Y-79600552D02*
X195419048Y-79600552D01*
X195419048Y-79600552D02*
X195514286Y-79648171D01*
X195514286Y-79648171D02*
X195561905Y-79695790D01*
X195561905Y-79695790D02*
X195609524Y-79791028D01*
X195609524Y-79791028D02*
X195609524Y-80076742D01*
X195609524Y-80076742D02*
X195561905Y-80171980D01*
X195561905Y-80171980D02*
X195514286Y-80219600D01*
X195514286Y-80219600D02*
X195419048Y-80267219D01*
X195419048Y-80267219D02*
X195228572Y-80267219D01*
X195228572Y-80267219D02*
X195133334Y-80219600D01*
X196038096Y-79600552D02*
X196038096Y-80600552D01*
X196038096Y-79648171D02*
X196133334Y-79600552D01*
X196133334Y-79600552D02*
X196323810Y-79600552D01*
X196323810Y-79600552D02*
X196419048Y-79648171D01*
X196419048Y-79648171D02*
X196466667Y-79695790D01*
X196466667Y-79695790D02*
X196514286Y-79791028D01*
X196514286Y-79791028D02*
X196514286Y-80076742D01*
X196514286Y-80076742D02*
X196466667Y-80171980D01*
X196466667Y-80171980D02*
X196419048Y-80219600D01*
X196419048Y-80219600D02*
X196323810Y-80267219D01*
X196323810Y-80267219D02*
X196133334Y-80267219D01*
X196133334Y-80267219D02*
X196038096Y-80219600D01*
X197085715Y-80267219D02*
X196990477Y-80219600D01*
X196990477Y-80219600D02*
X196942858Y-80124361D01*
X196942858Y-80124361D02*
X196942858Y-79267219D01*
X197371430Y-79600552D02*
X197609525Y-80267219D01*
X197847620Y-79600552D02*
X197609525Y-80267219D01*
X197609525Y-80267219D02*
X197514287Y-80505314D01*
X197514287Y-80505314D02*
X197466668Y-80552933D01*
X197466668Y-80552933D02*
X197371430Y-80600552D01*
D12*
X190605137Y-121167333D02*
X192128947Y-121167333D01*
X191367042Y-121929238D02*
X191367042Y-120405428D01*
X200805137Y-120967333D02*
X202328947Y-120967333D01*
D13*
X185266667Y-109686104D02*
X185228571Y-109724200D01*
X185228571Y-109724200D02*
X185114286Y-109762295D01*
X185114286Y-109762295D02*
X185038095Y-109762295D01*
X185038095Y-109762295D02*
X184923809Y-109724200D01*
X184923809Y-109724200D02*
X184847619Y-109648009D01*
X184847619Y-109648009D02*
X184809524Y-109571819D01*
X184809524Y-109571819D02*
X184771428Y-109419438D01*
X184771428Y-109419438D02*
X184771428Y-109305152D01*
X184771428Y-109305152D02*
X184809524Y-109152771D01*
X184809524Y-109152771D02*
X184847619Y-109076580D01*
X184847619Y-109076580D02*
X184923809Y-109000390D01*
X184923809Y-109000390D02*
X185038095Y-108962295D01*
X185038095Y-108962295D02*
X185114286Y-108962295D01*
X185114286Y-108962295D02*
X185228571Y-109000390D01*
X185228571Y-109000390D02*
X185266667Y-109038485D01*
X186028571Y-109762295D02*
X185571428Y-109762295D01*
X185800000Y-109762295D02*
X185800000Y-108962295D01*
X185800000Y-108962295D02*
X185723809Y-109076580D01*
X185723809Y-109076580D02*
X185647619Y-109152771D01*
X185647619Y-109152771D02*
X185571428Y-109190866D01*
X185466667Y-113162295D02*
X185200000Y-112781342D01*
X185009524Y-113162295D02*
X185009524Y-112362295D01*
X185009524Y-112362295D02*
X185314286Y-112362295D01*
X185314286Y-112362295D02*
X185390476Y-112400390D01*
X185390476Y-112400390D02*
X185428571Y-112438485D01*
X185428571Y-112438485D02*
X185466667Y-112514676D01*
X185466667Y-112514676D02*
X185466667Y-112628961D01*
X185466667Y-112628961D02*
X185428571Y-112705152D01*
X185428571Y-112705152D02*
X185390476Y-112743247D01*
X185390476Y-112743247D02*
X185314286Y-112781342D01*
X185314286Y-112781342D02*
X185009524Y-112781342D01*
X186190476Y-112362295D02*
X185809524Y-112362295D01*
X185809524Y-112362295D02*
X185771428Y-112743247D01*
X185771428Y-112743247D02*
X185809524Y-112705152D01*
X185809524Y-112705152D02*
X185885714Y-112667057D01*
X185885714Y-112667057D02*
X186076190Y-112667057D01*
X186076190Y-112667057D02*
X186152381Y-112705152D01*
X186152381Y-112705152D02*
X186190476Y-112743247D01*
X186190476Y-112743247D02*
X186228571Y-112819438D01*
X186228571Y-112819438D02*
X186228571Y-113009914D01*
X186228571Y-113009914D02*
X186190476Y-113086104D01*
X186190476Y-113086104D02*
X186152381Y-113124200D01*
X186152381Y-113124200D02*
X186076190Y-113162295D01*
X186076190Y-113162295D02*
X185885714Y-113162295D01*
X185885714Y-113162295D02*
X185809524Y-113124200D01*
X185809524Y-113124200D02*
X185771428Y-113086104D01*
X189466667Y-107362295D02*
X189200000Y-106981342D01*
X189009524Y-107362295D02*
X189009524Y-106562295D01*
X189009524Y-106562295D02*
X189314286Y-106562295D01*
X189314286Y-106562295D02*
X189390476Y-106600390D01*
X189390476Y-106600390D02*
X189428571Y-106638485D01*
X189428571Y-106638485D02*
X189466667Y-106714676D01*
X189466667Y-106714676D02*
X189466667Y-106828961D01*
X189466667Y-106828961D02*
X189428571Y-106905152D01*
X189428571Y-106905152D02*
X189390476Y-106943247D01*
X189390476Y-106943247D02*
X189314286Y-106981342D01*
X189314286Y-106981342D02*
X189009524Y-106981342D01*
X190152381Y-106562295D02*
X190000000Y-106562295D01*
X190000000Y-106562295D02*
X189923809Y-106600390D01*
X189923809Y-106600390D02*
X189885714Y-106638485D01*
X189885714Y-106638485D02*
X189809524Y-106752771D01*
X189809524Y-106752771D02*
X189771428Y-106905152D01*
X189771428Y-106905152D02*
X189771428Y-107209914D01*
X189771428Y-107209914D02*
X189809524Y-107286104D01*
X189809524Y-107286104D02*
X189847619Y-107324200D01*
X189847619Y-107324200D02*
X189923809Y-107362295D01*
X189923809Y-107362295D02*
X190076190Y-107362295D01*
X190076190Y-107362295D02*
X190152381Y-107324200D01*
X190152381Y-107324200D02*
X190190476Y-107286104D01*
X190190476Y-107286104D02*
X190228571Y-107209914D01*
X190228571Y-107209914D02*
X190228571Y-107019438D01*
X190228571Y-107019438D02*
X190190476Y-106943247D01*
X190190476Y-106943247D02*
X190152381Y-106905152D01*
X190152381Y-106905152D02*
X190076190Y-106867057D01*
X190076190Y-106867057D02*
X189923809Y-106867057D01*
X189923809Y-106867057D02*
X189847619Y-106905152D01*
X189847619Y-106905152D02*
X189809524Y-106943247D01*
X189809524Y-106943247D02*
X189771428Y-107019438D01*
X180686667Y-103356104D02*
X180648571Y-103394200D01*
X180648571Y-103394200D02*
X180534286Y-103432295D01*
X180534286Y-103432295D02*
X180458095Y-103432295D01*
X180458095Y-103432295D02*
X180343809Y-103394200D01*
X180343809Y-103394200D02*
X180267619Y-103318009D01*
X180267619Y-103318009D02*
X180229524Y-103241819D01*
X180229524Y-103241819D02*
X180191428Y-103089438D01*
X180191428Y-103089438D02*
X180191428Y-102975152D01*
X180191428Y-102975152D02*
X180229524Y-102822771D01*
X180229524Y-102822771D02*
X180267619Y-102746580D01*
X180267619Y-102746580D02*
X180343809Y-102670390D01*
X180343809Y-102670390D02*
X180458095Y-102632295D01*
X180458095Y-102632295D02*
X180534286Y-102632295D01*
X180534286Y-102632295D02*
X180648571Y-102670390D01*
X180648571Y-102670390D02*
X180686667Y-102708485D01*
X181372381Y-102898961D02*
X181372381Y-103432295D01*
X181181905Y-102594200D02*
X180991428Y-103165628D01*
X180991428Y-103165628D02*
X181486667Y-103165628D01*
X180896667Y-102212295D02*
X180630000Y-101831342D01*
X180439524Y-102212295D02*
X180439524Y-101412295D01*
X180439524Y-101412295D02*
X180744286Y-101412295D01*
X180744286Y-101412295D02*
X180820476Y-101450390D01*
X180820476Y-101450390D02*
X180858571Y-101488485D01*
X180858571Y-101488485D02*
X180896667Y-101564676D01*
X180896667Y-101564676D02*
X180896667Y-101678961D01*
X180896667Y-101678961D02*
X180858571Y-101755152D01*
X180858571Y-101755152D02*
X180820476Y-101793247D01*
X180820476Y-101793247D02*
X180744286Y-101831342D01*
X180744286Y-101831342D02*
X180439524Y-101831342D01*
X181353809Y-101755152D02*
X181277619Y-101717057D01*
X181277619Y-101717057D02*
X181239524Y-101678961D01*
X181239524Y-101678961D02*
X181201428Y-101602771D01*
X181201428Y-101602771D02*
X181201428Y-101564676D01*
X181201428Y-101564676D02*
X181239524Y-101488485D01*
X181239524Y-101488485D02*
X181277619Y-101450390D01*
X181277619Y-101450390D02*
X181353809Y-101412295D01*
X181353809Y-101412295D02*
X181506190Y-101412295D01*
X181506190Y-101412295D02*
X181582381Y-101450390D01*
X181582381Y-101450390D02*
X181620476Y-101488485D01*
X181620476Y-101488485D02*
X181658571Y-101564676D01*
X181658571Y-101564676D02*
X181658571Y-101602771D01*
X181658571Y-101602771D02*
X181620476Y-101678961D01*
X181620476Y-101678961D02*
X181582381Y-101717057D01*
X181582381Y-101717057D02*
X181506190Y-101755152D01*
X181506190Y-101755152D02*
X181353809Y-101755152D01*
X181353809Y-101755152D02*
X181277619Y-101793247D01*
X181277619Y-101793247D02*
X181239524Y-101831342D01*
X181239524Y-101831342D02*
X181201428Y-101907533D01*
X181201428Y-101907533D02*
X181201428Y-102059914D01*
X181201428Y-102059914D02*
X181239524Y-102136104D01*
X181239524Y-102136104D02*
X181277619Y-102174200D01*
X181277619Y-102174200D02*
X181353809Y-102212295D01*
X181353809Y-102212295D02*
X181506190Y-102212295D01*
X181506190Y-102212295D02*
X181582381Y-102174200D01*
X181582381Y-102174200D02*
X181620476Y-102136104D01*
X181620476Y-102136104D02*
X181658571Y-102059914D01*
X181658571Y-102059914D02*
X181658571Y-101907533D01*
X181658571Y-101907533D02*
X181620476Y-101831342D01*
X181620476Y-101831342D02*
X181582381Y-101793247D01*
X181582381Y-101793247D02*
X181506190Y-101755152D01*
X198635714Y-116772295D02*
X198369047Y-116391342D01*
X198178571Y-116772295D02*
X198178571Y-115972295D01*
X198178571Y-115972295D02*
X198483333Y-115972295D01*
X198483333Y-115972295D02*
X198559523Y-116010390D01*
X198559523Y-116010390D02*
X198597618Y-116048485D01*
X198597618Y-116048485D02*
X198635714Y-116124676D01*
X198635714Y-116124676D02*
X198635714Y-116238961D01*
X198635714Y-116238961D02*
X198597618Y-116315152D01*
X198597618Y-116315152D02*
X198559523Y-116353247D01*
X198559523Y-116353247D02*
X198483333Y-116391342D01*
X198483333Y-116391342D02*
X198178571Y-116391342D01*
X199397618Y-116772295D02*
X198940475Y-116772295D01*
X199169047Y-116772295D02*
X199169047Y-115972295D01*
X199169047Y-115972295D02*
X199092856Y-116086580D01*
X199092856Y-116086580D02*
X199016666Y-116162771D01*
X199016666Y-116162771D02*
X198940475Y-116200866D01*
X200159523Y-116772295D02*
X199702380Y-116772295D01*
X199930952Y-116772295D02*
X199930952Y-115972295D01*
X199930952Y-115972295D02*
X199854761Y-116086580D01*
X199854761Y-116086580D02*
X199778571Y-116162771D01*
X199778571Y-116162771D02*
X199702380Y-116200866D01*
X185466667Y-110886104D02*
X185428571Y-110924200D01*
X185428571Y-110924200D02*
X185314286Y-110962295D01*
X185314286Y-110962295D02*
X185238095Y-110962295D01*
X185238095Y-110962295D02*
X185123809Y-110924200D01*
X185123809Y-110924200D02*
X185047619Y-110848009D01*
X185047619Y-110848009D02*
X185009524Y-110771819D01*
X185009524Y-110771819D02*
X184971428Y-110619438D01*
X184971428Y-110619438D02*
X184971428Y-110505152D01*
X184971428Y-110505152D02*
X185009524Y-110352771D01*
X185009524Y-110352771D02*
X185047619Y-110276580D01*
X185047619Y-110276580D02*
X185123809Y-110200390D01*
X185123809Y-110200390D02*
X185238095Y-110162295D01*
X185238095Y-110162295D02*
X185314286Y-110162295D01*
X185314286Y-110162295D02*
X185428571Y-110200390D01*
X185428571Y-110200390D02*
X185466667Y-110238485D01*
X185771428Y-110238485D02*
X185809524Y-110200390D01*
X185809524Y-110200390D02*
X185885714Y-110162295D01*
X185885714Y-110162295D02*
X186076190Y-110162295D01*
X186076190Y-110162295D02*
X186152381Y-110200390D01*
X186152381Y-110200390D02*
X186190476Y-110238485D01*
X186190476Y-110238485D02*
X186228571Y-110314676D01*
X186228571Y-110314676D02*
X186228571Y-110390866D01*
X186228571Y-110390866D02*
X186190476Y-110505152D01*
X186190476Y-110505152D02*
X185733333Y-110962295D01*
X185733333Y-110962295D02*
X186228571Y-110962295D01*
X185466667Y-111962295D02*
X185200000Y-111581342D01*
X185009524Y-111962295D02*
X185009524Y-111162295D01*
X185009524Y-111162295D02*
X185314286Y-111162295D01*
X185314286Y-111162295D02*
X185390476Y-111200390D01*
X185390476Y-111200390D02*
X185428571Y-111238485D01*
X185428571Y-111238485D02*
X185466667Y-111314676D01*
X185466667Y-111314676D02*
X185466667Y-111428961D01*
X185466667Y-111428961D02*
X185428571Y-111505152D01*
X185428571Y-111505152D02*
X185390476Y-111543247D01*
X185390476Y-111543247D02*
X185314286Y-111581342D01*
X185314286Y-111581342D02*
X185009524Y-111581342D01*
X186152381Y-111428961D02*
X186152381Y-111962295D01*
X185961905Y-111124200D02*
X185771428Y-111695628D01*
X185771428Y-111695628D02*
X186266667Y-111695628D01*
%TO.C,C11*%
D14*
X197017380Y-110987117D02*
X197017380Y-111202789D01*
X197737380Y-110987117D02*
X197737380Y-111202789D01*
%TO.C,C9*%
X195490003Y-115932192D02*
X195490003Y-116147864D01*
X196210003Y-115932192D02*
X196210003Y-116147864D01*
%TO.C,C10*%
X195957380Y-110987117D02*
X195957380Y-111202789D01*
X196677380Y-110987117D02*
X196677380Y-111202789D01*
%TO.C,D2*%
X179367743Y-112190000D02*
X179367743Y-114110000D01*
X179367743Y-114110000D02*
X182052743Y-114110000D01*
X182052743Y-112190000D02*
X179367743Y-112190000D01*
%TO.C,C8*%
X197410000Y-105117836D02*
X197410000Y-104902164D01*
X198130000Y-105117836D02*
X198130000Y-104902164D01*
%TO.C,R7*%
X184780243Y-102487258D02*
X184780243Y-102012742D01*
X185825243Y-102487258D02*
X185825243Y-102012742D01*
%TO.C,J2*%
X201670000Y-82530000D02*
X201670000Y-118150000D01*
X201670000Y-82530000D02*
X204330000Y-82530000D01*
X201670000Y-118150000D02*
X204330000Y-118150000D01*
X203000000Y-79930000D02*
X204330000Y-79930000D01*
X204330000Y-79930000D02*
X204330000Y-81260000D01*
X204330000Y-82530000D02*
X204330000Y-118150000D01*
D15*
%TO.C,G\u002A\u002A\u002A*%
G36*
X193605375Y-85595698D02*
G01*
X193605375Y-86005375D01*
X193195698Y-86005375D01*
X192786021Y-86005375D01*
X192786021Y-85595698D01*
X192786021Y-85186021D01*
X193195698Y-85186021D01*
X193605375Y-85186021D01*
X193605375Y-85595698D01*
G37*
G36*
X193605375Y-91604300D02*
G01*
X193605375Y-92013978D01*
X193195698Y-92013978D01*
X192786021Y-92013978D01*
X192786021Y-91604300D01*
X192786021Y-91194623D01*
X193195698Y-91194623D01*
X193605375Y-91194623D01*
X193605375Y-91604300D01*
G37*
G36*
X195244085Y-89419354D02*
G01*
X195244085Y-89555913D01*
X194970967Y-89555913D01*
X194697849Y-89555913D01*
X194697849Y-89419354D01*
X194697849Y-89282795D01*
X194970967Y-89282795D01*
X195244085Y-89282795D01*
X195244085Y-89419354D01*
G37*
G36*
X199613978Y-85595698D02*
G01*
X199613978Y-86005375D01*
X199204300Y-86005375D01*
X198794623Y-86005375D01*
X198794623Y-85595698D01*
X198794623Y-85186021D01*
X199204300Y-85186021D01*
X199613978Y-85186021D01*
X199613978Y-85595698D01*
G37*
G36*
X196564644Y-89561953D02*
G01*
X196602179Y-89596030D01*
X196609660Y-89682078D01*
X196609677Y-89692472D01*
X196603637Y-89783998D01*
X196569560Y-89821534D01*
X196483512Y-89829014D01*
X196473117Y-89829031D01*
X196381591Y-89822991D01*
X196344056Y-89788915D01*
X196336575Y-89702866D01*
X196336558Y-89692472D01*
X196336558Y-89555913D01*
X196473117Y-89555913D01*
X196564644Y-89561953D01*
G37*
G36*
X197657117Y-87923243D02*
G01*
X197694652Y-87957320D01*
X197702133Y-88043368D01*
X197702150Y-88053763D01*
X197696110Y-88145289D01*
X197662033Y-88182824D01*
X197575985Y-88190305D01*
X197565591Y-88190322D01*
X197474064Y-88184282D01*
X197436529Y-88150205D01*
X197429048Y-88064157D01*
X197429031Y-88053763D01*
X197435071Y-87962236D01*
X197469148Y-87924701D01*
X197555196Y-87917220D01*
X197565591Y-87917203D01*
X197657117Y-87923243D01*
G37*
G36*
X198476472Y-90654426D02*
G01*
X198514007Y-90688503D01*
X198521488Y-90774551D01*
X198521504Y-90784945D01*
X198515465Y-90876472D01*
X198481388Y-90914007D01*
X198395340Y-90921488D01*
X198384945Y-90921504D01*
X198293419Y-90915465D01*
X198255883Y-90881388D01*
X198248403Y-90795340D01*
X198248386Y-90784945D01*
X198254426Y-90693419D01*
X198288503Y-90655883D01*
X198374551Y-90648403D01*
X198384945Y-90648386D01*
X198476472Y-90654426D01*
G37*
G36*
X200115181Y-90927544D02*
G01*
X200152717Y-90961621D01*
X200160197Y-91047669D01*
X200160214Y-91058064D01*
X200154174Y-91149590D01*
X200120098Y-91187126D01*
X200034049Y-91194606D01*
X200023655Y-91194623D01*
X199932129Y-91188583D01*
X199894593Y-91154506D01*
X199887113Y-91068458D01*
X199887096Y-91058064D01*
X199893136Y-90966537D01*
X199927212Y-90929002D01*
X200013261Y-90921521D01*
X200023655Y-90921504D01*
X200115181Y-90927544D01*
G37*
G36*
X194151612Y-85595698D02*
G01*
X194151612Y-86551612D01*
X193195698Y-86551612D01*
X192239784Y-86551612D01*
X192239784Y-86278494D01*
X192512902Y-86278494D01*
X193195698Y-86278494D01*
X193878494Y-86278494D01*
X193878494Y-85595698D01*
X193878494Y-84912902D01*
X193195698Y-84912902D01*
X192512902Y-84912902D01*
X192512902Y-85595698D01*
X192512902Y-86278494D01*
X192239784Y-86278494D01*
X192239784Y-85595698D01*
X192239784Y-84639784D01*
X193195698Y-84639784D01*
X194151612Y-84639784D01*
X194151612Y-85595698D01*
G37*
G36*
X194151612Y-91604300D02*
G01*
X194151612Y-92560214D01*
X193195698Y-92560214D01*
X192239784Y-92560214D01*
X192239784Y-92287096D01*
X192512902Y-92287096D01*
X193195698Y-92287096D01*
X193878494Y-92287096D01*
X193878494Y-91604300D01*
X193878494Y-90921504D01*
X193195698Y-90921504D01*
X192512902Y-90921504D01*
X192512902Y-91604300D01*
X192512902Y-92287096D01*
X192239784Y-92287096D01*
X192239784Y-91604300D01*
X192239784Y-90648386D01*
X193195698Y-90648386D01*
X194151612Y-90648386D01*
X194151612Y-91604300D01*
G37*
G36*
X200160214Y-85595698D02*
G01*
X200160214Y-86551612D01*
X199204300Y-86551612D01*
X198248386Y-86551612D01*
X198248386Y-86278494D01*
X198521504Y-86278494D01*
X199204300Y-86278494D01*
X199887096Y-86278494D01*
X199887096Y-85595698D01*
X199887096Y-84912902D01*
X199204300Y-84912902D01*
X198521504Y-84912902D01*
X198521504Y-85595698D01*
X198521504Y-86278494D01*
X198248386Y-86278494D01*
X198248386Y-85595698D01*
X198248386Y-84639784D01*
X199204300Y-84639784D01*
X200160214Y-84639784D01*
X200160214Y-85595698D01*
G37*
G36*
X194151612Y-89146236D02*
G01*
X194157652Y-89237762D01*
X194191728Y-89275298D01*
X194277777Y-89282778D01*
X194288171Y-89282795D01*
X194379697Y-89288835D01*
X194417233Y-89322911D01*
X194424713Y-89408960D01*
X194424730Y-89419354D01*
X194418690Y-89510880D01*
X194384614Y-89548416D01*
X194298565Y-89555896D01*
X194288171Y-89555913D01*
X194196645Y-89549873D01*
X194159109Y-89515797D01*
X194151629Y-89429748D01*
X194151612Y-89419354D01*
X194151612Y-89282795D01*
X193878494Y-89282795D01*
X193605375Y-89282795D01*
X193605375Y-89146236D01*
X193605375Y-89009677D01*
X193878494Y-89009677D01*
X194151612Y-89009677D01*
X194151612Y-89146236D01*
G37*
G36*
X194151612Y-87507526D02*
G01*
X194145572Y-87599052D01*
X194111496Y-87636588D01*
X194025447Y-87644068D01*
X194015053Y-87644085D01*
X193923527Y-87650125D01*
X193885991Y-87684202D01*
X193878511Y-87770250D01*
X193878494Y-87780644D01*
X193884534Y-87872171D01*
X193918610Y-87909706D01*
X194004659Y-87917186D01*
X194015053Y-87917203D01*
X194106579Y-87923243D01*
X194144115Y-87957320D01*
X194151595Y-88043368D01*
X194151612Y-88053763D01*
X194145572Y-88145289D01*
X194111496Y-88182824D01*
X194025447Y-88190305D01*
X194015053Y-88190322D01*
X193923527Y-88184282D01*
X193885991Y-88150205D01*
X193878511Y-88064157D01*
X193878494Y-88053763D01*
X193872454Y-87962236D01*
X193838377Y-87924701D01*
X193752329Y-87917220D01*
X193741935Y-87917203D01*
X193605375Y-87917203D01*
X193605375Y-87644085D01*
X193605375Y-87370967D01*
X193878494Y-87370967D01*
X194151612Y-87370967D01*
X194151612Y-87507526D01*
G37*
G36*
X197110880Y-86830770D02*
G01*
X197148416Y-86864847D01*
X197155896Y-86950895D01*
X197155913Y-86961289D01*
X197155913Y-87097849D01*
X197429031Y-87097849D01*
X197702150Y-87097849D01*
X197702150Y-87234408D01*
X197702150Y-87370967D01*
X197429031Y-87370967D01*
X197155913Y-87370967D01*
X197155913Y-87644085D01*
X197155913Y-87917203D01*
X197019354Y-87917203D01*
X196882795Y-87917203D01*
X196882795Y-88326881D01*
X196882795Y-88736558D01*
X196746236Y-88736558D01*
X196654709Y-88742598D01*
X196617174Y-88776675D01*
X196609694Y-88862723D01*
X196609677Y-88873117D01*
X196603637Y-88964644D01*
X196569560Y-89002179D01*
X196483512Y-89009660D01*
X196473117Y-89009677D01*
X196336558Y-89009677D01*
X196336558Y-89282795D01*
X196336558Y-89555913D01*
X196063440Y-89555913D01*
X195790322Y-89555913D01*
X195790322Y-89419354D01*
X195796362Y-89327828D01*
X195830438Y-89290292D01*
X195916487Y-89282812D01*
X195926881Y-89282795D01*
X196018407Y-89276755D01*
X196055943Y-89242678D01*
X196063423Y-89156630D01*
X196063440Y-89146236D01*
X196069480Y-89054709D01*
X196103556Y-89017174D01*
X196189605Y-89009694D01*
X196199999Y-89009677D01*
X196291525Y-89003637D01*
X196329061Y-88969560D01*
X196336541Y-88883512D01*
X196336558Y-88873117D01*
X196342598Y-88781591D01*
X196376675Y-88744056D01*
X196462723Y-88736575D01*
X196473117Y-88736558D01*
X196609677Y-88736558D01*
X196609677Y-88463440D01*
X196609677Y-88190322D01*
X196473117Y-88190322D01*
X196381591Y-88184282D01*
X196344056Y-88150205D01*
X196336575Y-88064157D01*
X196336558Y-88053763D01*
X196342598Y-87962236D01*
X196376675Y-87924701D01*
X196462723Y-87917220D01*
X196473117Y-87917203D01*
X196564644Y-87911164D01*
X196602179Y-87877087D01*
X196609660Y-87791038D01*
X196609677Y-87780644D01*
X196603637Y-87689118D01*
X196569560Y-87651582D01*
X196483512Y-87644102D01*
X196473117Y-87644085D01*
X196381591Y-87638045D01*
X196344056Y-87603969D01*
X196336575Y-87517920D01*
X196336558Y-87507526D01*
X196342598Y-87416000D01*
X196376675Y-87378464D01*
X196462723Y-87370984D01*
X196473117Y-87370967D01*
X196564644Y-87364927D01*
X196602179Y-87330850D01*
X196609660Y-87244802D01*
X196609677Y-87234408D01*
X196882795Y-87234408D01*
X196888835Y-87325934D01*
X196922911Y-87363470D01*
X197008960Y-87370950D01*
X197019354Y-87370967D01*
X197110880Y-87364927D01*
X197148416Y-87330850D01*
X197155896Y-87244802D01*
X197155913Y-87234408D01*
X197149873Y-87142881D01*
X197115797Y-87105346D01*
X197029748Y-87097866D01*
X197019354Y-87097849D01*
X196927828Y-87103888D01*
X196890292Y-87137965D01*
X196882812Y-87224014D01*
X196882795Y-87234408D01*
X196609677Y-87234408D01*
X196615716Y-87142881D01*
X196649793Y-87105346D01*
X196735842Y-87097866D01*
X196746236Y-87097849D01*
X196837762Y-87091809D01*
X196875298Y-87057732D01*
X196882778Y-86971684D01*
X196882795Y-86961289D01*
X196888835Y-86869763D01*
X196922911Y-86832228D01*
X197008960Y-86824747D01*
X197019354Y-86824730D01*
X197110880Y-86830770D01*
G37*
G36*
X195244085Y-84776343D02*
G01*
X195244085Y-84912902D01*
X194970967Y-84912902D01*
X194697849Y-84912902D01*
X194697849Y-85049461D01*
X194697849Y-85186021D01*
X194970967Y-85186021D01*
X195244085Y-85186021D01*
X195244085Y-85049461D01*
X195244085Y-84912902D01*
X195517203Y-84912902D01*
X195790322Y-84912902D01*
X195790322Y-85459139D01*
X195790322Y-86005375D01*
X195653763Y-86005375D01*
X195562236Y-86011415D01*
X195524701Y-86045492D01*
X195517220Y-86131540D01*
X195517203Y-86141935D01*
X195523243Y-86233461D01*
X195557320Y-86270996D01*
X195643368Y-86278477D01*
X195653763Y-86278494D01*
X195745289Y-86284534D01*
X195782824Y-86318610D01*
X195790305Y-86404659D01*
X195790322Y-86415053D01*
X195796362Y-86506579D01*
X195830438Y-86544115D01*
X195916487Y-86551595D01*
X195926881Y-86551612D01*
X196018407Y-86545572D01*
X196055943Y-86511496D01*
X196063423Y-86425447D01*
X196063440Y-86415053D01*
X196069480Y-86323527D01*
X196103556Y-86285991D01*
X196189605Y-86278511D01*
X196199999Y-86278494D01*
X196291525Y-86272454D01*
X196329061Y-86238377D01*
X196336541Y-86152329D01*
X196336558Y-86141935D01*
X196330518Y-86050408D01*
X196296442Y-86012873D01*
X196210393Y-86005392D01*
X196199999Y-86005375D01*
X196108473Y-85999336D01*
X196070937Y-85965259D01*
X196063457Y-85879210D01*
X196063440Y-85868816D01*
X196063440Y-85732257D01*
X196336558Y-85732257D01*
X196609677Y-85732257D01*
X196609677Y-85595698D01*
X196603637Y-85504172D01*
X196569560Y-85466636D01*
X196483512Y-85459156D01*
X196473117Y-85459139D01*
X196381591Y-85453099D01*
X196344056Y-85419022D01*
X196336575Y-85332974D01*
X196336558Y-85322580D01*
X196882795Y-85322580D01*
X196888835Y-85414106D01*
X196922911Y-85451642D01*
X197008960Y-85459122D01*
X197019354Y-85459139D01*
X197155913Y-85459139D01*
X197155913Y-85322580D01*
X197149873Y-85231053D01*
X197115797Y-85193518D01*
X197029748Y-85186038D01*
X197019354Y-85186021D01*
X196927828Y-85192061D01*
X196890292Y-85226137D01*
X196882812Y-85312186D01*
X196882795Y-85322580D01*
X196336558Y-85322580D01*
X196342598Y-85231053D01*
X196376675Y-85193518D01*
X196462723Y-85186038D01*
X196473117Y-85186021D01*
X196564644Y-85179981D01*
X196602179Y-85145904D01*
X196609660Y-85059856D01*
X196609677Y-85049461D01*
X196603637Y-84957935D01*
X196569560Y-84920400D01*
X196483512Y-84912919D01*
X196473117Y-84912902D01*
X196381591Y-84906862D01*
X196344056Y-84872786D01*
X196336575Y-84786737D01*
X196336558Y-84776343D01*
X196336558Y-84639784D01*
X196746236Y-84639784D01*
X197155913Y-84639784D01*
X197155913Y-84776343D01*
X197155913Y-84912902D01*
X197429031Y-84912902D01*
X197702150Y-84912902D01*
X197702150Y-85049461D01*
X197708190Y-85140988D01*
X197742266Y-85178523D01*
X197828315Y-85186004D01*
X197838709Y-85186021D01*
X197975268Y-85186021D01*
X197975268Y-85459139D01*
X197975268Y-85732257D01*
X197838709Y-85732257D01*
X197747183Y-85738297D01*
X197709647Y-85772374D01*
X197702167Y-85858422D01*
X197702150Y-85868816D01*
X197708190Y-85960343D01*
X197742266Y-85997878D01*
X197828315Y-86005358D01*
X197838709Y-86005375D01*
X197975268Y-86005375D01*
X197975268Y-86415053D01*
X197975268Y-86824730D01*
X197565591Y-86824730D01*
X197155913Y-86824730D01*
X197155913Y-86415053D01*
X197155913Y-86005375D01*
X197292472Y-86005375D01*
X197429031Y-86005375D01*
X197429031Y-86278494D01*
X197429031Y-86551612D01*
X197565591Y-86551612D01*
X197702150Y-86551612D01*
X197702150Y-86278494D01*
X197702150Y-86005375D01*
X197565591Y-86005375D01*
X197474064Y-85999336D01*
X197436529Y-85965259D01*
X197429048Y-85879210D01*
X197429031Y-85868816D01*
X197435071Y-85777290D01*
X197469148Y-85739754D01*
X197555196Y-85732274D01*
X197565591Y-85732257D01*
X197657117Y-85726217D01*
X197694652Y-85692141D01*
X197702133Y-85606092D01*
X197702150Y-85595698D01*
X197702150Y-85459139D01*
X197429031Y-85459139D01*
X197155913Y-85459139D01*
X197155913Y-85732257D01*
X197155913Y-86005375D01*
X197019354Y-86005375D01*
X196882795Y-86005375D01*
X196882795Y-86415053D01*
X196882795Y-86824730D01*
X196609677Y-86824730D01*
X196336558Y-86824730D01*
X196336558Y-86688171D01*
X196342598Y-86596645D01*
X196376675Y-86559109D01*
X196462723Y-86551629D01*
X196473117Y-86551612D01*
X196564644Y-86545572D01*
X196602179Y-86511496D01*
X196609660Y-86425447D01*
X196609677Y-86415053D01*
X196603637Y-86323527D01*
X196569560Y-86285991D01*
X196483512Y-86278511D01*
X196473117Y-86278494D01*
X196381591Y-86284534D01*
X196344056Y-86318610D01*
X196336575Y-86404659D01*
X196336558Y-86415053D01*
X196330518Y-86506579D01*
X196296442Y-86544115D01*
X196210393Y-86551595D01*
X196199999Y-86551612D01*
X196063440Y-86551612D01*
X196063440Y-87370967D01*
X196063440Y-88190322D01*
X196199999Y-88190322D01*
X196291525Y-88196362D01*
X196329061Y-88230438D01*
X196336541Y-88316487D01*
X196336558Y-88326881D01*
X196330518Y-88418407D01*
X196296442Y-88455943D01*
X196210393Y-88463423D01*
X196199999Y-88463440D01*
X196108473Y-88469480D01*
X196070937Y-88503556D01*
X196063457Y-88589605D01*
X196063440Y-88599999D01*
X196057400Y-88691525D01*
X196023324Y-88729061D01*
X195937275Y-88736541D01*
X195926881Y-88736558D01*
X195835355Y-88742598D01*
X195797819Y-88776675D01*
X195790339Y-88862723D01*
X195790322Y-88873117D01*
X195784282Y-88964644D01*
X195750205Y-89002179D01*
X195664157Y-89009660D01*
X195653763Y-89009677D01*
X195562236Y-89015716D01*
X195524701Y-89049793D01*
X195517220Y-89135842D01*
X195517203Y-89146236D01*
X195511164Y-89237762D01*
X195477087Y-89275298D01*
X195391038Y-89282778D01*
X195380644Y-89282795D01*
X195244085Y-89282795D01*
X195244085Y-89009677D01*
X195244085Y-88736558D01*
X195107526Y-88736558D01*
X195016000Y-88730518D01*
X194978464Y-88696442D01*
X194970984Y-88610393D01*
X194970967Y-88599999D01*
X194970967Y-88463440D01*
X195380644Y-88463440D01*
X195790322Y-88463440D01*
X195790322Y-88326881D01*
X195784282Y-88235355D01*
X195750205Y-88197819D01*
X195664157Y-88190339D01*
X195653763Y-88190322D01*
X195562236Y-88184282D01*
X195524701Y-88150205D01*
X195517220Y-88064157D01*
X195517203Y-88053763D01*
X195511164Y-87962236D01*
X195477087Y-87924701D01*
X195391038Y-87917220D01*
X195380644Y-87917203D01*
X195289118Y-87923243D01*
X195251582Y-87957320D01*
X195244102Y-88043368D01*
X195244085Y-88053763D01*
X195238045Y-88145289D01*
X195203969Y-88182824D01*
X195117920Y-88190305D01*
X195107526Y-88190322D01*
X195016000Y-88184282D01*
X194978464Y-88150205D01*
X194970984Y-88064157D01*
X194970967Y-88053763D01*
X194964927Y-87962236D01*
X194930850Y-87924701D01*
X194844802Y-87917220D01*
X194834408Y-87917203D01*
X194742881Y-87923243D01*
X194705346Y-87957320D01*
X194697866Y-88043368D01*
X194697849Y-88053763D01*
X194703888Y-88145289D01*
X194737965Y-88182824D01*
X194824014Y-88190305D01*
X194834408Y-88190322D01*
X194925934Y-88196362D01*
X194963470Y-88230438D01*
X194970950Y-88316487D01*
X194970967Y-88326881D01*
X194970967Y-88463440D01*
X194697849Y-88463440D01*
X194424730Y-88463440D01*
X194424730Y-88599999D01*
X194430770Y-88691525D01*
X194464847Y-88729061D01*
X194550895Y-88736541D01*
X194561289Y-88736558D01*
X194697849Y-88736558D01*
X194697849Y-89009677D01*
X194697849Y-89282795D01*
X194561289Y-89282795D01*
X194469763Y-89276755D01*
X194432228Y-89242678D01*
X194424747Y-89156630D01*
X194424730Y-89146236D01*
X194418690Y-89054709D01*
X194384614Y-89017174D01*
X194298565Y-89009694D01*
X194288171Y-89009677D01*
X194196645Y-89003637D01*
X194159109Y-88969560D01*
X194151629Y-88883512D01*
X194151612Y-88873117D01*
X194151612Y-88736558D01*
X193741935Y-88736558D01*
X193332257Y-88736558D01*
X193332257Y-89146236D01*
X193332257Y-89555913D01*
X193059139Y-89555913D01*
X192786021Y-89555913D01*
X192786021Y-89419354D01*
X192792061Y-89327828D01*
X192826137Y-89290292D01*
X192912186Y-89282812D01*
X192922580Y-89282795D01*
X193014106Y-89276755D01*
X193051642Y-89242678D01*
X193059122Y-89156630D01*
X193059139Y-89146236D01*
X193059139Y-89009677D01*
X192786021Y-89009677D01*
X192512902Y-89009677D01*
X192512902Y-89282795D01*
X192512902Y-89555913D01*
X192649461Y-89555913D01*
X192740988Y-89561953D01*
X192778523Y-89596030D01*
X192786004Y-89682078D01*
X192786021Y-89692472D01*
X192786021Y-89829031D01*
X193059139Y-89829031D01*
X193332257Y-89829031D01*
X193332257Y-89692472D01*
X193332257Y-89555913D01*
X193741935Y-89555913D01*
X194151612Y-89555913D01*
X194151612Y-89692472D01*
X194151612Y-89829031D01*
X193878494Y-89829031D01*
X193605375Y-89829031D01*
X193605375Y-89965591D01*
X193599336Y-90057117D01*
X193565259Y-90094652D01*
X193479210Y-90102133D01*
X193468816Y-90102150D01*
X193377290Y-90108190D01*
X193339754Y-90142266D01*
X193332274Y-90228315D01*
X193332257Y-90238709D01*
X193326217Y-90330235D01*
X193292141Y-90367771D01*
X193206092Y-90375251D01*
X193195698Y-90375268D01*
X193104172Y-90369228D01*
X193066636Y-90335151D01*
X193059156Y-90249103D01*
X193059139Y-90238709D01*
X193053099Y-90147183D01*
X193019022Y-90109647D01*
X192932974Y-90102167D01*
X192922580Y-90102150D01*
X192831053Y-90108190D01*
X192793518Y-90142266D01*
X192786038Y-90228315D01*
X192786021Y-90238709D01*
X192786021Y-90375268D01*
X192512902Y-90375268D01*
X192239784Y-90375268D01*
X192239784Y-89692472D01*
X192239784Y-89009677D01*
X192376343Y-89009677D01*
X192512902Y-89009677D01*
X192512902Y-88736558D01*
X192512902Y-88463440D01*
X192376343Y-88463440D01*
X192239784Y-88463440D01*
X192239784Y-88053763D01*
X192239784Y-87780644D01*
X192512902Y-87780644D01*
X192518942Y-87872171D01*
X192553019Y-87909706D01*
X192639067Y-87917186D01*
X192649461Y-87917203D01*
X192740988Y-87911164D01*
X192778523Y-87877087D01*
X192786004Y-87791038D01*
X192786021Y-87780644D01*
X192779981Y-87689118D01*
X192745904Y-87651582D01*
X192659856Y-87644102D01*
X192649461Y-87644085D01*
X192557935Y-87650125D01*
X192520400Y-87684202D01*
X192512919Y-87770250D01*
X192512902Y-87780644D01*
X192239784Y-87780644D01*
X192239784Y-87644085D01*
X192376343Y-87644085D01*
X192512902Y-87644085D01*
X192512902Y-87370967D01*
X192512902Y-87097849D01*
X192376343Y-87097849D01*
X192284817Y-87091809D01*
X192247281Y-87057732D01*
X192239801Y-86971684D01*
X192239784Y-86961289D01*
X192245824Y-86869763D01*
X192279901Y-86832228D01*
X192365949Y-86824747D01*
X192376343Y-86824730D01*
X192467869Y-86830770D01*
X192505405Y-86864847D01*
X192512885Y-86950895D01*
X192512902Y-86961289D01*
X192518942Y-87052816D01*
X192553019Y-87090351D01*
X192639067Y-87097832D01*
X192649461Y-87097849D01*
X192786021Y-87097849D01*
X192786021Y-87370967D01*
X192786021Y-87644085D01*
X192922580Y-87644085D01*
X193332257Y-87644085D01*
X193332257Y-87917203D01*
X193468816Y-87917203D01*
X193560343Y-87923243D01*
X193597878Y-87957320D01*
X193605358Y-88043368D01*
X193605375Y-88053763D01*
X193599336Y-88145289D01*
X193565259Y-88182824D01*
X193479210Y-88190305D01*
X193468816Y-88190322D01*
X193377290Y-88196362D01*
X193339754Y-88230438D01*
X193332274Y-88316487D01*
X193332257Y-88326881D01*
X193338297Y-88418407D01*
X193372374Y-88455943D01*
X193458422Y-88463423D01*
X193468816Y-88463440D01*
X193560343Y-88457400D01*
X193597878Y-88423324D01*
X193605358Y-88337275D01*
X193605375Y-88326881D01*
X193611415Y-88235355D01*
X193645492Y-88197819D01*
X193731540Y-88190339D01*
X193741935Y-88190322D01*
X193833461Y-88196362D01*
X193870996Y-88230438D01*
X193878477Y-88316487D01*
X193878494Y-88326881D01*
X193884534Y-88418407D01*
X193918610Y-88455943D01*
X194004659Y-88463423D01*
X194015053Y-88463440D01*
X194106579Y-88457400D01*
X194144115Y-88423324D01*
X194151595Y-88337275D01*
X194151612Y-88326881D01*
X194157652Y-88235355D01*
X194191728Y-88197819D01*
X194277777Y-88190339D01*
X194288171Y-88190322D01*
X194424730Y-88190322D01*
X194424730Y-87917203D01*
X194424730Y-87644085D01*
X194697849Y-87644085D01*
X194970967Y-87644085D01*
X194970967Y-87507526D01*
X194970967Y-87370967D01*
X194697849Y-87370967D01*
X194424730Y-87370967D01*
X194424730Y-87234408D01*
X194424730Y-87097849D01*
X194015053Y-87097849D01*
X193605375Y-87097849D01*
X193605375Y-87234408D01*
X193599336Y-87325934D01*
X193565259Y-87363470D01*
X193479210Y-87370950D01*
X193468816Y-87370967D01*
X193332257Y-87370967D01*
X193332257Y-87644085D01*
X192922580Y-87644085D01*
X193014106Y-87638045D01*
X193051642Y-87603969D01*
X193059122Y-87517920D01*
X193059139Y-87507526D01*
X193065179Y-87416000D01*
X193099255Y-87378464D01*
X193185304Y-87370984D01*
X193195698Y-87370967D01*
X193287224Y-87364927D01*
X193324760Y-87330850D01*
X193332240Y-87244802D01*
X193332257Y-87234408D01*
X193326217Y-87142881D01*
X193292141Y-87105346D01*
X193206092Y-87097866D01*
X193195698Y-87097849D01*
X193104172Y-87091809D01*
X193066636Y-87057732D01*
X193059156Y-86971684D01*
X193059139Y-86961289D01*
X193059139Y-86824730D01*
X193878494Y-86824730D01*
X194697849Y-86824730D01*
X194697849Y-86688171D01*
X194691809Y-86596645D01*
X194657732Y-86559109D01*
X194571684Y-86551629D01*
X194561289Y-86551612D01*
X194469763Y-86545572D01*
X194432228Y-86511496D01*
X194424747Y-86425447D01*
X194424730Y-86415053D01*
X194697849Y-86415053D01*
X194703888Y-86506579D01*
X194737965Y-86544115D01*
X194824014Y-86551595D01*
X194834408Y-86551612D01*
X194925934Y-86545572D01*
X194963470Y-86511496D01*
X194970950Y-86425447D01*
X194970967Y-86415053D01*
X194977007Y-86323527D01*
X195011083Y-86285991D01*
X195097132Y-86278511D01*
X195107526Y-86278494D01*
X195244085Y-86278494D01*
X195244085Y-86551612D01*
X195244085Y-86824730D01*
X195107526Y-86824730D01*
X195016000Y-86830770D01*
X194978464Y-86864847D01*
X194970984Y-86950895D01*
X194970967Y-86961289D01*
X194977007Y-87052816D01*
X195011083Y-87090351D01*
X195097132Y-87097832D01*
X195107526Y-87097849D01*
X195199052Y-87103888D01*
X195236588Y-87137965D01*
X195244068Y-87224014D01*
X195244085Y-87234408D01*
X195250125Y-87325934D01*
X195284202Y-87363470D01*
X195370250Y-87370950D01*
X195380644Y-87370967D01*
X195472171Y-87377007D01*
X195509706Y-87411083D01*
X195517186Y-87497132D01*
X195517203Y-87507526D01*
X195523243Y-87599052D01*
X195557320Y-87636588D01*
X195643368Y-87644068D01*
X195653763Y-87644085D01*
X195790322Y-87644085D01*
X195790322Y-87370967D01*
X195790322Y-87097849D01*
X195653763Y-87097849D01*
X195562236Y-87091809D01*
X195524701Y-87057732D01*
X195517220Y-86971684D01*
X195517203Y-86961289D01*
X195523243Y-86869763D01*
X195557320Y-86832228D01*
X195643368Y-86824747D01*
X195653763Y-86824730D01*
X195745289Y-86818690D01*
X195782824Y-86784614D01*
X195790305Y-86698565D01*
X195790322Y-86688171D01*
X195784282Y-86596645D01*
X195750205Y-86559109D01*
X195664157Y-86551629D01*
X195653763Y-86551612D01*
X195562236Y-86545572D01*
X195524701Y-86511496D01*
X195517220Y-86425447D01*
X195517203Y-86415053D01*
X195511164Y-86323527D01*
X195477087Y-86285991D01*
X195391038Y-86278511D01*
X195380644Y-86278494D01*
X195289118Y-86272454D01*
X195251582Y-86238377D01*
X195244102Y-86152329D01*
X195244085Y-86141935D01*
X195250125Y-86050408D01*
X195284202Y-86012873D01*
X195370250Y-86005392D01*
X195380644Y-86005375D01*
X195517203Y-86005375D01*
X195517203Y-85732257D01*
X195517203Y-85459139D01*
X195380644Y-85459139D01*
X195289118Y-85465179D01*
X195251582Y-85499255D01*
X195244102Y-85585304D01*
X195244085Y-85595698D01*
X195238045Y-85687224D01*
X195203969Y-85724760D01*
X195117920Y-85732240D01*
X195107526Y-85732257D01*
X194970967Y-85732257D01*
X194970967Y-86005375D01*
X194970967Y-86278494D01*
X194834408Y-86278494D01*
X194742881Y-86284534D01*
X194705346Y-86318610D01*
X194697866Y-86404659D01*
X194697849Y-86415053D01*
X194424730Y-86415053D01*
X194430770Y-86323527D01*
X194464847Y-86285991D01*
X194550895Y-86278511D01*
X194561289Y-86278494D01*
X194652816Y-86272454D01*
X194690351Y-86238377D01*
X194697832Y-86152329D01*
X194697849Y-86141935D01*
X194691809Y-86050408D01*
X194657732Y-86012873D01*
X194571684Y-86005392D01*
X194561289Y-86005375D01*
X194469763Y-85999336D01*
X194432228Y-85965259D01*
X194424747Y-85879210D01*
X194424730Y-85868816D01*
X194430770Y-85777290D01*
X194464847Y-85739754D01*
X194550895Y-85732274D01*
X194561289Y-85732257D01*
X194652816Y-85726217D01*
X194690351Y-85692141D01*
X194697832Y-85606092D01*
X194697849Y-85595698D01*
X194691809Y-85504172D01*
X194657732Y-85466636D01*
X194571684Y-85459156D01*
X194561289Y-85459139D01*
X194424730Y-85459139D01*
X194424730Y-85049461D01*
X194424730Y-84639784D01*
X194834408Y-84639784D01*
X195244085Y-84639784D01*
X195244085Y-84776343D01*
G37*
G36*
X198248386Y-87097849D02*
G01*
X198248386Y-87370967D01*
X198111827Y-87370967D01*
X198020301Y-87377007D01*
X197982765Y-87411083D01*
X197975285Y-87497132D01*
X197975268Y-87507526D01*
X197975268Y-87644085D01*
X198248386Y-87644085D01*
X198521504Y-87644085D01*
X198521504Y-87370967D01*
X198521504Y-87097849D01*
X198658064Y-87097849D01*
X198749590Y-87091809D01*
X198787126Y-87057732D01*
X198794606Y-86971684D01*
X198794623Y-86961289D01*
X198800663Y-86869763D01*
X198834739Y-86832228D01*
X198920788Y-86824747D01*
X198931182Y-86824730D01*
X199067741Y-86824730D01*
X199067741Y-87234408D01*
X199067741Y-87644085D01*
X199204300Y-87644085D01*
X199340859Y-87644085D01*
X199340859Y-87234408D01*
X199340859Y-86824730D01*
X199750537Y-86824730D01*
X200160214Y-86824730D01*
X200160214Y-86961289D01*
X200154174Y-87052816D01*
X200120098Y-87090351D01*
X200034049Y-87097832D01*
X200023655Y-87097849D01*
X199932129Y-87103888D01*
X199894593Y-87137965D01*
X199887113Y-87224014D01*
X199887096Y-87234408D01*
X199881056Y-87325934D01*
X199846979Y-87363470D01*
X199760931Y-87370950D01*
X199750537Y-87370967D01*
X199659010Y-87377007D01*
X199621475Y-87411083D01*
X199613995Y-87497132D01*
X199613978Y-87507526D01*
X199607938Y-87599052D01*
X199573861Y-87636588D01*
X199487813Y-87644068D01*
X199477418Y-87644085D01*
X199385892Y-87650125D01*
X199348357Y-87684202D01*
X199340876Y-87770250D01*
X199340859Y-87780644D01*
X199334819Y-87872171D01*
X199300743Y-87909706D01*
X199214694Y-87917186D01*
X199204300Y-87917203D01*
X199112774Y-87911164D01*
X199075238Y-87877087D01*
X199067758Y-87791038D01*
X199067741Y-87780644D01*
X199061701Y-87689118D01*
X199027625Y-87651582D01*
X198941576Y-87644102D01*
X198931182Y-87644085D01*
X198794623Y-87644085D01*
X198794623Y-87917203D01*
X198794623Y-88190322D01*
X199340859Y-88190322D01*
X199887096Y-88190322D01*
X199887096Y-87917203D01*
X199887096Y-87644085D01*
X200023655Y-87644085D01*
X200160214Y-87644085D01*
X200160214Y-88326881D01*
X200160214Y-89009677D01*
X200023655Y-89009677D01*
X199887096Y-89009677D01*
X199887096Y-88736558D01*
X199887096Y-88463440D01*
X199750537Y-88463440D01*
X199613978Y-88463440D01*
X199613978Y-88736558D01*
X199613978Y-89009677D01*
X199477418Y-89009677D01*
X199385892Y-89015716D01*
X199348357Y-89049793D01*
X199340876Y-89135842D01*
X199340859Y-89146236D01*
X199340859Y-89282795D01*
X199613978Y-89282795D01*
X199887096Y-89282795D01*
X199887096Y-89419354D01*
X199893136Y-89510880D01*
X199927212Y-89548416D01*
X200013261Y-89555896D01*
X200023655Y-89555913D01*
X200115181Y-89561953D01*
X200152717Y-89596030D01*
X200160197Y-89682078D01*
X200160214Y-89692472D01*
X200154174Y-89783998D01*
X200120098Y-89821534D01*
X200034049Y-89829014D01*
X200023655Y-89829031D01*
X199932129Y-89822991D01*
X199894593Y-89788915D01*
X199887113Y-89702866D01*
X199887096Y-89692472D01*
X199887096Y-89555913D01*
X199613978Y-89555913D01*
X199340859Y-89555913D01*
X199340859Y-89692472D01*
X199346899Y-89783998D01*
X199380976Y-89821534D01*
X199467024Y-89829014D01*
X199477418Y-89829031D01*
X199568945Y-89835071D01*
X199606480Y-89869148D01*
X199613961Y-89955196D01*
X199613978Y-89965591D01*
X199620018Y-90057117D01*
X199654094Y-90094652D01*
X199740143Y-90102133D01*
X199750537Y-90102150D01*
X199842063Y-90108190D01*
X199879599Y-90142266D01*
X199887079Y-90228315D01*
X199887096Y-90238709D01*
X199887096Y-90375268D01*
X199613978Y-90375268D01*
X199340859Y-90375268D01*
X199340859Y-90648386D01*
X199340859Y-90921504D01*
X199204300Y-90921504D01*
X199112774Y-90927544D01*
X199075238Y-90961621D01*
X199067758Y-91047669D01*
X199067741Y-91058064D01*
X199073781Y-91149590D01*
X199107858Y-91187126D01*
X199193906Y-91194606D01*
X199204300Y-91194623D01*
X199295826Y-91200663D01*
X199333362Y-91234739D01*
X199340842Y-91320788D01*
X199340859Y-91331182D01*
X199340859Y-91467741D01*
X198794623Y-91467741D01*
X198248386Y-91467741D01*
X198248386Y-91740859D01*
X198248386Y-92013978D01*
X198384945Y-92013978D01*
X198476472Y-92007938D01*
X198514007Y-91973861D01*
X198521488Y-91887813D01*
X198521504Y-91877418D01*
X198521504Y-91740859D01*
X198794623Y-91740859D01*
X199067741Y-91740859D01*
X199067741Y-91877418D01*
X199073781Y-91968945D01*
X199107858Y-92006480D01*
X199193906Y-92013961D01*
X199204300Y-92013978D01*
X199295826Y-92007938D01*
X199333362Y-91973861D01*
X199340842Y-91887813D01*
X199340859Y-91877418D01*
X199346899Y-91785892D01*
X199380976Y-91748357D01*
X199467024Y-91740876D01*
X199477418Y-91740859D01*
X199568945Y-91734819D01*
X199606480Y-91700743D01*
X199613961Y-91614694D01*
X199613978Y-91604300D01*
X199620018Y-91512774D01*
X199654094Y-91475238D01*
X199740143Y-91467758D01*
X199750537Y-91467741D01*
X199842063Y-91473781D01*
X199879599Y-91507858D01*
X199887079Y-91593906D01*
X199887096Y-91604300D01*
X199893136Y-91695826D01*
X199927212Y-91733362D01*
X200013261Y-91740842D01*
X200023655Y-91740859D01*
X200160214Y-91740859D01*
X200160214Y-92013978D01*
X200160214Y-92287096D01*
X200023655Y-92287096D01*
X199932129Y-92281056D01*
X199894593Y-92246979D01*
X199887113Y-92160931D01*
X199887096Y-92150537D01*
X199881056Y-92059010D01*
X199846979Y-92021475D01*
X199760931Y-92013995D01*
X199750537Y-92013978D01*
X199659010Y-92020018D01*
X199621475Y-92054094D01*
X199613995Y-92140143D01*
X199613978Y-92150537D01*
X199613978Y-92287096D01*
X199340859Y-92287096D01*
X199067741Y-92287096D01*
X199067741Y-92423655D01*
X199061701Y-92515181D01*
X199027625Y-92552717D01*
X198941576Y-92560197D01*
X198931182Y-92560214D01*
X198839656Y-92554174D01*
X198802120Y-92520098D01*
X198794640Y-92434049D01*
X198794623Y-92423655D01*
X198788583Y-92332129D01*
X198754506Y-92294593D01*
X198668458Y-92287113D01*
X198658064Y-92287096D01*
X198566537Y-92293136D01*
X198529002Y-92327212D01*
X198521521Y-92413261D01*
X198521504Y-92423655D01*
X198515465Y-92515181D01*
X198481388Y-92552717D01*
X198395340Y-92560197D01*
X198384945Y-92560214D01*
X198248386Y-92560214D01*
X198248386Y-92287096D01*
X198248386Y-92150537D01*
X198794623Y-92150537D01*
X198800663Y-92242063D01*
X198834739Y-92279599D01*
X198920788Y-92287079D01*
X198931182Y-92287096D01*
X199022708Y-92281056D01*
X199060244Y-92246979D01*
X199067724Y-92160931D01*
X199067741Y-92150537D01*
X199061701Y-92059010D01*
X199027625Y-92021475D01*
X198941576Y-92013995D01*
X198931182Y-92013978D01*
X198839656Y-92020018D01*
X198802120Y-92054094D01*
X198794640Y-92140143D01*
X198794623Y-92150537D01*
X198248386Y-92150537D01*
X198248386Y-92013978D01*
X197975268Y-92013978D01*
X197702150Y-92013978D01*
X197702150Y-91877418D01*
X197708190Y-91785892D01*
X197742266Y-91748357D01*
X197828315Y-91740876D01*
X197838709Y-91740859D01*
X197930235Y-91734819D01*
X197967771Y-91700743D01*
X197975251Y-91614694D01*
X197975268Y-91604300D01*
X197975268Y-91467741D01*
X197702150Y-91467741D01*
X197429031Y-91467741D01*
X197429031Y-91604300D01*
X197422991Y-91695826D01*
X197388915Y-91733362D01*
X197302866Y-91740842D01*
X197292472Y-91740859D01*
X197200946Y-91746899D01*
X197163410Y-91780976D01*
X197155930Y-91867024D01*
X197155913Y-91877418D01*
X197161953Y-91968945D01*
X197196030Y-92006480D01*
X197282078Y-92013961D01*
X197292472Y-92013978D01*
X197383998Y-92020018D01*
X197421534Y-92054094D01*
X197429014Y-92140143D01*
X197429031Y-92150537D01*
X197429031Y-92287096D01*
X197702150Y-92287096D01*
X197975268Y-92287096D01*
X197975268Y-92423655D01*
X197975268Y-92560214D01*
X197702150Y-92560214D01*
X197429031Y-92560214D01*
X197429031Y-92423655D01*
X197422991Y-92332129D01*
X197388915Y-92294593D01*
X197302866Y-92287113D01*
X197292472Y-92287096D01*
X197200946Y-92293136D01*
X197163410Y-92327212D01*
X197155930Y-92413261D01*
X197155913Y-92423655D01*
X197149873Y-92515181D01*
X197115797Y-92552717D01*
X197029748Y-92560197D01*
X197019354Y-92560214D01*
X196927828Y-92554174D01*
X196890292Y-92520098D01*
X196882812Y-92434049D01*
X196882795Y-92423655D01*
X196876755Y-92332129D01*
X196842678Y-92294593D01*
X196756630Y-92287113D01*
X196746236Y-92287096D01*
X196654709Y-92293136D01*
X196617174Y-92327212D01*
X196609694Y-92413261D01*
X196609677Y-92423655D01*
X196609677Y-92560214D01*
X196336558Y-92560214D01*
X196063440Y-92560214D01*
X196063440Y-92423655D01*
X196057400Y-92332129D01*
X196023324Y-92294593D01*
X195937275Y-92287113D01*
X195926881Y-92287096D01*
X195835355Y-92293136D01*
X195797819Y-92327212D01*
X195790339Y-92413261D01*
X195790322Y-92423655D01*
X195784282Y-92515181D01*
X195750205Y-92552717D01*
X195664157Y-92560197D01*
X195653763Y-92560214D01*
X195562236Y-92554174D01*
X195524701Y-92520098D01*
X195517220Y-92434049D01*
X195517203Y-92423655D01*
X195517203Y-92287096D01*
X195244085Y-92287096D01*
X194970967Y-92287096D01*
X194970967Y-92423655D01*
X194970967Y-92560214D01*
X194697849Y-92560214D01*
X194424730Y-92560214D01*
X194424730Y-92423655D01*
X194424730Y-92287096D01*
X194697849Y-92287096D01*
X194970967Y-92287096D01*
X194970967Y-92013978D01*
X194970967Y-91877418D01*
X195517203Y-91877418D01*
X195523243Y-91968945D01*
X195557320Y-92006480D01*
X195643368Y-92013961D01*
X195653763Y-92013978D01*
X195745289Y-92007938D01*
X195782824Y-91973861D01*
X195790305Y-91887813D01*
X195790322Y-91877418D01*
X195784282Y-91785892D01*
X195750205Y-91748357D01*
X195664157Y-91740876D01*
X195653763Y-91740859D01*
X196063440Y-91740859D01*
X196336558Y-91740859D01*
X196609677Y-91740859D01*
X196609677Y-91877418D01*
X196603637Y-91968945D01*
X196569560Y-92006480D01*
X196483512Y-92013961D01*
X196473117Y-92013978D01*
X196381591Y-92020018D01*
X196344056Y-92054094D01*
X196336575Y-92140143D01*
X196336558Y-92150537D01*
X196342598Y-92242063D01*
X196376675Y-92279599D01*
X196462723Y-92287079D01*
X196473117Y-92287096D01*
X196564644Y-92281056D01*
X196602179Y-92246979D01*
X196609660Y-92160931D01*
X196609677Y-92150537D01*
X196615716Y-92059010D01*
X196649793Y-92021475D01*
X196735842Y-92013995D01*
X196746236Y-92013978D01*
X196882795Y-92013978D01*
X196882795Y-91467741D01*
X196882795Y-90921504D01*
X197019354Y-90921504D01*
X197110880Y-90927544D01*
X197148416Y-90961621D01*
X197155896Y-91047669D01*
X197155913Y-91058064D01*
X197161953Y-91149590D01*
X197196030Y-91187126D01*
X197282078Y-91194606D01*
X197292472Y-91194623D01*
X197975268Y-91194623D01*
X198384945Y-91194623D01*
X198794623Y-91194623D01*
X198794623Y-90784945D01*
X198794623Y-90375268D01*
X198384945Y-90375268D01*
X197975268Y-90375268D01*
X197975268Y-90784945D01*
X197975268Y-91194623D01*
X197292472Y-91194623D01*
X197383998Y-91188583D01*
X197421534Y-91154506D01*
X197429014Y-91068458D01*
X197429031Y-91058064D01*
X197422991Y-90966537D01*
X197388915Y-90929002D01*
X197302866Y-90921521D01*
X197292472Y-90921504D01*
X197200946Y-90915465D01*
X197163410Y-90881388D01*
X197155930Y-90795340D01*
X197155913Y-90784945D01*
X197149873Y-90693419D01*
X197115797Y-90655883D01*
X197029748Y-90648403D01*
X197019354Y-90648386D01*
X196927828Y-90642346D01*
X196890292Y-90608270D01*
X196882812Y-90522221D01*
X196882795Y-90511827D01*
X196882795Y-90375268D01*
X196609677Y-90375268D01*
X196336558Y-90375268D01*
X196336558Y-90648386D01*
X196336558Y-90921504D01*
X196473117Y-90921504D01*
X196564644Y-90927544D01*
X196602179Y-90961621D01*
X196609660Y-91047669D01*
X196609677Y-91058064D01*
X196603637Y-91149590D01*
X196569560Y-91187126D01*
X196483512Y-91194606D01*
X196473117Y-91194623D01*
X196381591Y-91200663D01*
X196344056Y-91234739D01*
X196336575Y-91320788D01*
X196336558Y-91331182D01*
X196330518Y-91422708D01*
X196296442Y-91460244D01*
X196210393Y-91467724D01*
X196199999Y-91467741D01*
X196108473Y-91473781D01*
X196070937Y-91507858D01*
X196063457Y-91593906D01*
X196063440Y-91604300D01*
X196063440Y-91740859D01*
X195653763Y-91740859D01*
X195562236Y-91746899D01*
X195524701Y-91780976D01*
X195517220Y-91867024D01*
X195517203Y-91877418D01*
X194970967Y-91877418D01*
X194970967Y-91740859D01*
X194697849Y-91740859D01*
X194424730Y-91740859D01*
X194424730Y-90921504D01*
X194424730Y-90102150D01*
X194288171Y-90102150D01*
X194196645Y-90108190D01*
X194159109Y-90142266D01*
X194151629Y-90228315D01*
X194151612Y-90238709D01*
X194145572Y-90330235D01*
X194111496Y-90367771D01*
X194025447Y-90375251D01*
X194015053Y-90375268D01*
X193923527Y-90369228D01*
X193885991Y-90335151D01*
X193878511Y-90249103D01*
X193878494Y-90238709D01*
X193884534Y-90147183D01*
X193918610Y-90109647D01*
X194004659Y-90102167D01*
X194015053Y-90102150D01*
X194106579Y-90096110D01*
X194144115Y-90062033D01*
X194151595Y-89975985D01*
X194151612Y-89965591D01*
X194151612Y-89829031D01*
X194424730Y-89829031D01*
X194697849Y-89829031D01*
X194697849Y-90648386D01*
X194697849Y-91467741D01*
X194834408Y-91467741D01*
X194925934Y-91473781D01*
X194963470Y-91507858D01*
X194970950Y-91593906D01*
X194970967Y-91604300D01*
X194977007Y-91695826D01*
X195011083Y-91733362D01*
X195097132Y-91740842D01*
X195107526Y-91740859D01*
X195199052Y-91734819D01*
X195236588Y-91700743D01*
X195244068Y-91614694D01*
X195244085Y-91604300D01*
X195238045Y-91512774D01*
X195203969Y-91475238D01*
X195117920Y-91467758D01*
X195107526Y-91467741D01*
X195016000Y-91461701D01*
X194978464Y-91427625D01*
X194970984Y-91341576D01*
X194970967Y-91331182D01*
X194970967Y-91194623D01*
X195517203Y-91194623D01*
X196063440Y-91194623D01*
X196063440Y-90784945D01*
X196063440Y-90375268D01*
X195926881Y-90375268D01*
X195835355Y-90381308D01*
X195797819Y-90415384D01*
X195790339Y-90501433D01*
X195790322Y-90511827D01*
X195784282Y-90603353D01*
X195750205Y-90640889D01*
X195664157Y-90648369D01*
X195653763Y-90648386D01*
X195562236Y-90654426D01*
X195524701Y-90688503D01*
X195517220Y-90774551D01*
X195517203Y-90784945D01*
X195517203Y-90921504D01*
X195244085Y-90921504D01*
X194970967Y-90921504D01*
X194970967Y-90511827D01*
X194970967Y-90102150D01*
X195517203Y-90102150D01*
X196063440Y-90102150D01*
X196063440Y-89965591D01*
X196069480Y-89874064D01*
X196103556Y-89836529D01*
X196189605Y-89829048D01*
X196199999Y-89829031D01*
X196291525Y-89835071D01*
X196329061Y-89869148D01*
X196336541Y-89955196D01*
X196336558Y-89965591D01*
X196336558Y-90102150D01*
X196746236Y-90102150D01*
X197155913Y-90102150D01*
X197155913Y-90238709D01*
X197161953Y-90330235D01*
X197196030Y-90367771D01*
X197282078Y-90375251D01*
X197292472Y-90375268D01*
X197383998Y-90381308D01*
X197421534Y-90415384D01*
X197429014Y-90501433D01*
X197429031Y-90511827D01*
X197435071Y-90603353D01*
X197469148Y-90640889D01*
X197555196Y-90648369D01*
X197565591Y-90648386D01*
X197702150Y-90648386D01*
X197702150Y-90375268D01*
X197702150Y-90102150D01*
X197975268Y-90102150D01*
X198248386Y-90102150D01*
X198248386Y-89965591D01*
X198254426Y-89874064D01*
X198288503Y-89836529D01*
X198374551Y-89829048D01*
X198384945Y-89829031D01*
X198476472Y-89835071D01*
X198514007Y-89869148D01*
X198521488Y-89955196D01*
X198521504Y-89965591D01*
X198521504Y-90102150D01*
X198794623Y-90102150D01*
X199067741Y-90102150D01*
X199067741Y-89965591D01*
X199061701Y-89874064D01*
X199027625Y-89836529D01*
X198941576Y-89829048D01*
X198931182Y-89829031D01*
X198794623Y-89829031D01*
X198794623Y-89555913D01*
X198794623Y-89282795D01*
X198931182Y-89282795D01*
X199022708Y-89288835D01*
X199060244Y-89322911D01*
X199067724Y-89408960D01*
X199067741Y-89419354D01*
X199073781Y-89510880D01*
X199107858Y-89548416D01*
X199193906Y-89555896D01*
X199204300Y-89555913D01*
X199295826Y-89549873D01*
X199333362Y-89515797D01*
X199340842Y-89429748D01*
X199340859Y-89419354D01*
X199334819Y-89327828D01*
X199300743Y-89290292D01*
X199214694Y-89282812D01*
X199204300Y-89282795D01*
X199112774Y-89276755D01*
X199075238Y-89242678D01*
X199067758Y-89156630D01*
X199067741Y-89146236D01*
X199073781Y-89054709D01*
X199107858Y-89017174D01*
X199193906Y-89009694D01*
X199204300Y-89009677D01*
X199340859Y-89009677D01*
X199340859Y-88736558D01*
X199340859Y-88463440D01*
X199204300Y-88463440D01*
X199067741Y-88463440D01*
X199067741Y-88736558D01*
X199067741Y-89009677D01*
X198794623Y-89009677D01*
X198521504Y-89009677D01*
X198521504Y-88873117D01*
X198527544Y-88781591D01*
X198561621Y-88744056D01*
X198647669Y-88736575D01*
X198658064Y-88736558D01*
X198749590Y-88730518D01*
X198787126Y-88696442D01*
X198794606Y-88610393D01*
X198794623Y-88599999D01*
X198788583Y-88508473D01*
X198754506Y-88470937D01*
X198668458Y-88463457D01*
X198658064Y-88463440D01*
X198566537Y-88469480D01*
X198529002Y-88503556D01*
X198521521Y-88589605D01*
X198521504Y-88599999D01*
X198521504Y-88736558D01*
X198111827Y-88736558D01*
X197702150Y-88736558D01*
X197702150Y-88873117D01*
X197702150Y-89009677D01*
X197975268Y-89009677D01*
X198248386Y-89009677D01*
X198248386Y-89146236D01*
X198248386Y-89282795D01*
X197975268Y-89282795D01*
X197702150Y-89282795D01*
X197702150Y-89692472D01*
X197702150Y-90102150D01*
X197565591Y-90102150D01*
X197429031Y-90102150D01*
X197429031Y-89829031D01*
X197429031Y-89555913D01*
X197292472Y-89555913D01*
X197200946Y-89561953D01*
X197163410Y-89596030D01*
X197155930Y-89682078D01*
X197155913Y-89692472D01*
X197149873Y-89783998D01*
X197115797Y-89821534D01*
X197029748Y-89829014D01*
X197019354Y-89829031D01*
X196927828Y-89822991D01*
X196890292Y-89788915D01*
X196882812Y-89702866D01*
X196882795Y-89692472D01*
X196876755Y-89600946D01*
X196842678Y-89563410D01*
X196756630Y-89555930D01*
X196746236Y-89555913D01*
X196609677Y-89555913D01*
X196609677Y-89282795D01*
X196609677Y-89009677D01*
X196746236Y-89009677D01*
X196837762Y-89015716D01*
X196875298Y-89049793D01*
X196882778Y-89135842D01*
X196882795Y-89146236D01*
X196882795Y-89282795D01*
X197155913Y-89282795D01*
X197429031Y-89282795D01*
X197429031Y-89146236D01*
X197422991Y-89054709D01*
X197388915Y-89017174D01*
X197302866Y-89009694D01*
X197292472Y-89009677D01*
X197200946Y-89003637D01*
X197163410Y-88969560D01*
X197155930Y-88883512D01*
X197155913Y-88873117D01*
X197161953Y-88781591D01*
X197196030Y-88744056D01*
X197282078Y-88736575D01*
X197292472Y-88736558D01*
X197383998Y-88730518D01*
X197421534Y-88696442D01*
X197429014Y-88610393D01*
X197429031Y-88599999D01*
X197429031Y-88463440D01*
X197838709Y-88463440D01*
X198248386Y-88463440D01*
X198248386Y-88190322D01*
X198248386Y-87917203D01*
X198111827Y-87917203D01*
X198020301Y-87911164D01*
X197982765Y-87877087D01*
X197975285Y-87791038D01*
X197975268Y-87780644D01*
X197969228Y-87689118D01*
X197935151Y-87651582D01*
X197849103Y-87644102D01*
X197838709Y-87644085D01*
X197747183Y-87638045D01*
X197709647Y-87603969D01*
X197702167Y-87517920D01*
X197702150Y-87507526D01*
X197708190Y-87416000D01*
X197742266Y-87378464D01*
X197828315Y-87370984D01*
X197838709Y-87370967D01*
X197975268Y-87370967D01*
X197975268Y-87097849D01*
X197975268Y-86824730D01*
X198111827Y-86824730D01*
X198248386Y-86824730D01*
X198248386Y-87097849D01*
G37*
%TO.C,C3*%
D14*
X180440000Y-107412164D02*
X180440000Y-107627836D01*
X181160000Y-107412164D02*
X181160000Y-107627836D01*
%TO.C,R12*%
X198150003Y-112243669D02*
X198150003Y-111936387D01*
X198910003Y-112243669D02*
X198910003Y-111936387D01*
%TO.C,C12*%
X187302164Y-101655000D02*
X187517836Y-101655000D01*
X187302164Y-102375000D02*
X187517836Y-102375000D01*
%TO.C,L1*%
X199170000Y-107892301D02*
X199170000Y-108217859D01*
X200190000Y-107892301D02*
X200190000Y-108217859D01*
%TO.C,U3*%
D16*
X195180000Y-106555105D02*
X196030876Y-106555105D01*
X195180000Y-106760922D02*
X195180000Y-106555105D01*
X195180000Y-109555105D02*
X195180000Y-109349238D01*
X196030876Y-109555105D02*
X195155997Y-109555105D01*
X196679136Y-106555105D02*
X196680889Y-106555105D01*
X196680889Y-109555105D02*
X196679136Y-109555105D01*
X197329149Y-106555105D02*
X198180025Y-106555105D01*
X198180025Y-106705982D02*
X198180025Y-106555105D01*
X198180025Y-109555105D02*
X197329149Y-109555105D01*
X198180025Y-109555105D02*
X198180025Y-109404229D01*
D17*
X198904193Y-109452083D02*
G75*
G02*
X198773815Y-109452083I-65189J0D01*
G01*
X198773815Y-109452083D02*
G75*
G02*
X198904193Y-109452083I65189J0D01*
G01*
%TO.C,C1*%
D14*
X183507836Y-109040000D02*
X183292164Y-109040000D01*
X183507836Y-109760000D02*
X183292164Y-109760000D01*
%TO.C,R5*%
X184086384Y-112290000D02*
X183779102Y-112290000D01*
X184086384Y-113050000D02*
X183779102Y-113050000D01*
%TO.C,R14*%
X184172743Y-115153641D02*
X184172743Y-114846359D01*
X184932743Y-115153641D02*
X184932743Y-114846359D01*
%TO.C,R9*%
X187399102Y-103870000D02*
X187706384Y-103870000D01*
X187399102Y-104630000D02*
X187706384Y-104630000D01*
%TO.C,U4*%
D18*
X192629972Y-117500000D02*
X193780035Y-117500000D01*
X192629997Y-129000025D02*
X192629997Y-117500000D01*
X193779908Y-126424892D02*
X193779908Y-128974905D01*
X193780035Y-117500000D02*
X193780035Y-119800000D01*
X193978841Y-119800000D02*
X192629997Y-119800000D01*
X194779908Y-126424892D02*
X193779908Y-126424892D01*
X194779908Y-128974905D02*
X194779908Y-126424892D01*
X196518846Y-119800000D02*
X196141122Y-119800000D01*
X197879984Y-126449987D02*
X197879984Y-129000000D01*
X198879984Y-117500000D02*
X198879984Y-119800000D01*
X198879984Y-126449987D02*
X197879984Y-126449987D01*
X198879984Y-129000000D02*
X198879984Y-126449987D01*
X200029997Y-117499975D02*
X200029997Y-129000025D01*
X200029997Y-117500000D02*
X198879984Y-117500000D01*
X200029997Y-129000025D02*
X192629997Y-129000025D01*
X200030784Y-119800000D02*
X198681127Y-119800000D01*
D15*
%TO.C,G\u002A\u002A\u002A*%
G36*
X186207700Y-88668262D02*
G01*
X186318278Y-88749013D01*
X186340477Y-88775644D01*
X186411793Y-88892647D01*
X186442407Y-88995111D01*
X186442428Y-88996999D01*
X186432894Y-89041812D01*
X186391593Y-89069175D01*
X186299480Y-89083279D01*
X186137507Y-89088317D01*
X186025529Y-89088745D01*
X185608631Y-89088745D01*
X185660027Y-88953562D01*
X185700720Y-88877363D01*
X185981240Y-88877363D01*
X186048907Y-88884219D01*
X186118739Y-88876489D01*
X186110395Y-88859408D01*
X186009685Y-88852912D01*
X185987419Y-88859408D01*
X185981240Y-88877363D01*
X185700720Y-88877363D01*
X185757160Y-88771676D01*
X185886363Y-88673653D01*
X186052960Y-88646035D01*
X186207700Y-88668262D01*
G37*
G36*
X182249750Y-87779819D02*
G01*
X182441627Y-87858516D01*
X182594966Y-87990738D01*
X182700634Y-88161978D01*
X182749493Y-88357726D01*
X182732409Y-88563476D01*
X182640245Y-88764721D01*
X182476972Y-88936831D01*
X182305087Y-89016903D01*
X182091088Y-89039535D01*
X181872979Y-89004378D01*
X181735612Y-88943623D01*
X181566795Y-88800224D01*
X181478292Y-88615825D01*
X181458082Y-88424892D01*
X181465276Y-88380289D01*
X181713593Y-88380289D01*
X181714511Y-88510763D01*
X181766126Y-88646565D01*
X181882439Y-88741620D01*
X182036077Y-88789856D01*
X182199673Y-88785201D01*
X182345856Y-88721584D01*
X182405268Y-88663997D01*
X182488151Y-88497759D01*
X182491413Y-88334598D01*
X182430755Y-88189939D01*
X182321881Y-88079203D01*
X182180493Y-88017815D01*
X182022296Y-88021197D01*
X181862991Y-88104774D01*
X181848596Y-88117242D01*
X181751602Y-88235432D01*
X181713593Y-88380289D01*
X181465276Y-88380289D01*
X181498173Y-88176315D01*
X181611293Y-87975828D01*
X181786931Y-87841031D01*
X182028473Y-87769155D01*
X182249750Y-87779819D01*
G37*
G36*
X187778119Y-86471269D02*
G01*
X188528912Y-86565675D01*
X189082782Y-86680605D01*
X189631661Y-86845246D01*
X190098646Y-87041630D01*
X190482009Y-87266314D01*
X190780020Y-87515852D01*
X190990950Y-87786798D01*
X191113072Y-88075708D01*
X191144655Y-88379136D01*
X191083971Y-88693637D01*
X190929292Y-89015765D01*
X190678889Y-89342077D01*
X190505815Y-89516434D01*
X190294821Y-89696573D01*
X190050906Y-89880001D01*
X189817998Y-90034240D01*
X189757949Y-90069342D01*
X189570882Y-90180335D01*
X189407596Y-90287998D01*
X189294719Y-90374386D01*
X189270861Y-90397589D01*
X189135213Y-90488674D01*
X188975720Y-90530803D01*
X188845287Y-90557333D01*
X188653187Y-90610072D01*
X188429723Y-90680283D01*
X188287058Y-90729346D01*
X187452989Y-90987078D01*
X186560427Y-91190155D01*
X185634697Y-91335434D01*
X184701122Y-91419776D01*
X183785022Y-91440039D01*
X182925334Y-91394389D01*
X182274292Y-91310162D01*
X181682060Y-91188706D01*
X181153161Y-91032769D01*
X180692122Y-90845098D01*
X180303465Y-90628443D01*
X179991716Y-90385550D01*
X179761400Y-90119166D01*
X179617040Y-89832041D01*
X179583341Y-89641207D01*
X179668955Y-89641207D01*
X179757497Y-89914875D01*
X179942275Y-90182292D01*
X180083472Y-90326947D01*
X180407408Y-90572086D01*
X180818619Y-90788833D01*
X181309448Y-90974622D01*
X181872240Y-91126884D01*
X182499339Y-91243053D01*
X182996583Y-91303908D01*
X183271958Y-91321326D01*
X183620031Y-91328873D01*
X184015690Y-91327245D01*
X184433821Y-91317135D01*
X184849311Y-91299237D01*
X185237047Y-91274246D01*
X185571913Y-91242855D01*
X185676770Y-91229841D01*
X186239830Y-91141796D01*
X186815188Y-91029784D01*
X187377125Y-90899893D01*
X187899924Y-90758215D01*
X188357866Y-90610840D01*
X188479742Y-90566051D01*
X188575474Y-90525443D01*
X188587399Y-90492855D01*
X188523853Y-90441834D01*
X188519783Y-90438983D01*
X188447217Y-90361769D01*
X188349986Y-90223916D01*
X188247180Y-90052900D01*
X188230665Y-90022775D01*
X188139204Y-89861859D01*
X188061997Y-89741263D01*
X188012683Y-89681868D01*
X188006161Y-89679027D01*
X187986285Y-89723872D01*
X187972282Y-89841102D01*
X187967322Y-89995249D01*
X187956396Y-90214456D01*
X187912846Y-90353851D01*
X187820517Y-90430618D01*
X187663253Y-90461939D01*
X187524611Y-90466069D01*
X187341455Y-90459141D01*
X187217043Y-90427849D01*
X187140141Y-90356429D01*
X187099514Y-90229117D01*
X187083928Y-90030150D01*
X187081900Y-89844890D01*
X187081900Y-89378308D01*
X186972575Y-89454882D01*
X186874539Y-89497088D01*
X186716635Y-89521939D01*
X186481824Y-89531813D01*
X186419185Y-89532210D01*
X186212775Y-89537477D01*
X186039189Y-89550910D01*
X185925430Y-89570052D01*
X185901748Y-89579352D01*
X185851780Y-89635088D01*
X185897443Y-89679027D01*
X186039337Y-89711343D01*
X186278061Y-89732212D01*
X186443037Y-89738665D01*
X186958925Y-89752812D01*
X187000582Y-89974168D01*
X187016605Y-90194120D01*
X186989502Y-90330797D01*
X186936764Y-90466069D01*
X186412460Y-90466069D01*
X186084606Y-90458442D01*
X185832012Y-90431568D01*
X185632454Y-90379460D01*
X185463707Y-90296129D01*
X185303551Y-90175588D01*
X185289775Y-90163570D01*
X185077556Y-89976767D01*
X185049116Y-90152022D01*
X185007927Y-90316218D01*
X184935570Y-90411969D01*
X184809515Y-90456234D01*
X184631901Y-90466069D01*
X184348055Y-90431884D01*
X184097839Y-90336471D01*
X183905023Y-90190542D01*
X183842827Y-90110475D01*
X183746003Y-89957553D01*
X183212694Y-89940146D01*
X182647914Y-89902811D01*
X182151909Y-89830925D01*
X181978424Y-89793382D01*
X181915627Y-89785120D01*
X181882575Y-89813490D01*
X181869781Y-89899853D01*
X181867746Y-90042621D01*
X181849877Y-90262047D01*
X181786596Y-90404244D01*
X181663390Y-90483374D01*
X181465747Y-90513602D01*
X181383468Y-90515259D01*
X181219697Y-90510026D01*
X181098541Y-90485537D01*
X181012492Y-90428614D01*
X180954037Y-90326076D01*
X180915669Y-90164743D01*
X180889877Y-89931434D01*
X180869152Y-89612972D01*
X180869129Y-89612570D01*
X180850100Y-89269130D01*
X180847331Y-89212022D01*
X181080704Y-89212022D01*
X181081827Y-89550481D01*
X181085864Y-89803904D01*
X181093815Y-89985616D01*
X181106681Y-90108943D01*
X181125463Y-90187208D01*
X181151162Y-90233739D01*
X181158002Y-90241200D01*
X181285646Y-90306587D01*
X181449379Y-90310084D01*
X181575839Y-90267578D01*
X181624711Y-90228061D01*
X181653562Y-90159209D01*
X181667337Y-90038389D01*
X181670980Y-89842963D01*
X181670986Y-89832094D01*
X181670986Y-89696833D01*
X182039912Y-89696833D01*
X182236672Y-89740897D01*
X182327014Y-89758789D01*
X182440228Y-89775960D01*
X182591629Y-89794097D01*
X182796531Y-89814884D01*
X183070250Y-89840006D01*
X183392640Y-89868106D01*
X183498762Y-89860862D01*
X183577104Y-89844784D01*
X183631672Y-89823115D01*
X183664595Y-89779952D01*
X183681292Y-89694042D01*
X183687181Y-89544126D01*
X183687781Y-89410640D01*
X183685751Y-89209975D01*
X183675810Y-89085100D01*
X183652188Y-89013450D01*
X183609111Y-88972456D01*
X183570674Y-88952799D01*
X183499118Y-88929786D01*
X183441035Y-88949319D01*
X183373470Y-89026791D01*
X183302523Y-89132543D01*
X183089294Y-89373107D01*
X182807385Y-89544560D01*
X182459690Y-89645282D01*
X182359647Y-89659594D01*
X182039912Y-89696833D01*
X181670986Y-89696833D01*
X181670986Y-89447531D01*
X182132435Y-89420000D01*
X182458114Y-89385849D01*
X182706431Y-89320788D01*
X182896210Y-89214567D01*
X183046276Y-89056937D01*
X183165531Y-88857536D01*
X183225902Y-88659379D01*
X183230838Y-88596846D01*
X183613996Y-88596846D01*
X183624113Y-88714893D01*
X183669957Y-88767612D01*
X183749269Y-88784576D01*
X183884542Y-88800140D01*
X183884542Y-89334189D01*
X183885929Y-89572102D01*
X183893006Y-89734416D01*
X183910145Y-89843906D01*
X183941716Y-89923343D01*
X183992094Y-89995501D01*
X184017376Y-90026104D01*
X184226223Y-90207357D01*
X184470096Y-90296780D01*
X184646989Y-90305476D01*
X184771652Y-90292683D01*
X184830652Y-90254363D01*
X184852770Y-90161130D01*
X184858657Y-90089327D01*
X184862318Y-89958412D01*
X184835588Y-89892837D01*
X184760003Y-89860287D01*
X184722878Y-89851655D01*
X184591968Y-89811885D01*
X184505752Y-89748772D01*
X184455266Y-89643654D01*
X184431547Y-89477870D01*
X184427535Y-89311585D01*
X184622394Y-89311585D01*
X184628945Y-89496903D01*
X184656171Y-89605273D01*
X184715431Y-89657684D01*
X184818082Y-89675126D01*
X184819154Y-89675184D01*
X184858411Y-89658269D01*
X184881254Y-89590444D01*
X184891397Y-89453853D01*
X184892940Y-89320580D01*
X184892940Y-89311165D01*
X185073217Y-89311165D01*
X185117649Y-89583839D01*
X185230955Y-89834963D01*
X185409356Y-90047071D01*
X185649077Y-90202699D01*
X185760008Y-90244825D01*
X185912048Y-90276763D01*
X186122611Y-90301375D01*
X186351885Y-90314318D01*
X186405536Y-90315208D01*
X186835949Y-90318499D01*
X186835949Y-90126348D01*
X186835949Y-89934197D01*
X186345316Y-89917290D01*
X186075455Y-89901007D01*
X185886798Y-89867692D01*
X185762466Y-89807965D01*
X185685581Y-89712451D01*
X185639264Y-89571769D01*
X185628771Y-89519159D01*
X185595247Y-89334696D01*
X186238462Y-89334696D01*
X186529364Y-89332447D01*
X186734134Y-89320764D01*
X186864998Y-89292244D01*
X186934185Y-89239484D01*
X186953921Y-89155079D01*
X186936433Y-89031627D01*
X186914376Y-88941175D01*
X187229470Y-88941175D01*
X187231618Y-89333089D01*
X187237814Y-89665770D01*
X187247688Y-89929885D01*
X187260869Y-90116104D01*
X187276987Y-90215099D01*
X187280391Y-90223352D01*
X187353728Y-90292740D01*
X187489361Y-90317894D01*
X187524611Y-90318499D01*
X187675117Y-90300679D01*
X187758401Y-90240544D01*
X187768831Y-90223352D01*
X187796424Y-90123866D01*
X187814916Y-89965410D01*
X187819752Y-89829831D01*
X187819752Y-89531457D01*
X187989232Y-89531457D01*
X188073462Y-89536917D01*
X188138962Y-89564514D01*
X188202631Y-89631077D01*
X188281369Y-89753433D01*
X188372102Y-89912680D01*
X188585491Y-90293904D01*
X188842093Y-90308772D01*
X188977336Y-90311768D01*
X189059694Y-90294107D01*
X189088879Y-90243908D01*
X189064601Y-90149286D01*
X188986570Y-89998358D01*
X188854495Y-89779242D01*
X188828150Y-89736773D01*
X188715852Y-89551997D01*
X188626348Y-89396936D01*
X188570672Y-89291189D01*
X188557728Y-89256596D01*
X188583485Y-89198084D01*
X188652290Y-89079454D01*
X188751628Y-88921776D01*
X188803555Y-88842796D01*
X188912478Y-88675418D01*
X188996669Y-88538762D01*
X189043674Y-88453386D01*
X189049381Y-88436978D01*
X189005235Y-88415798D01*
X188892388Y-88402455D01*
X188807125Y-88400085D01*
X188678818Y-88405461D01*
X188581761Y-88431662D01*
X188497771Y-88493794D01*
X188408668Y-88606964D01*
X188296270Y-88786279D01*
X188251377Y-88861851D01*
X188160954Y-88998928D01*
X188082899Y-89067251D01*
X187990420Y-89088312D01*
X187968533Y-89088745D01*
X187819752Y-89088745D01*
X187819752Y-88421446D01*
X187816115Y-88167622D01*
X187806157Y-87943323D01*
X187791311Y-87769985D01*
X187773008Y-87669046D01*
X187768831Y-87658999D01*
X187695493Y-87589611D01*
X187559862Y-87564457D01*
X187524611Y-87563853D01*
X187374105Y-87581672D01*
X187290821Y-87641807D01*
X187280391Y-87658999D01*
X187263751Y-87740157D01*
X187249976Y-87910333D01*
X187239438Y-88160198D01*
X187232506Y-88480422D01*
X187229552Y-88861674D01*
X187229470Y-88941175D01*
X186914376Y-88941175D01*
X186911032Y-88927463D01*
X186799489Y-88657602D01*
X186624206Y-88462466D01*
X186386966Y-88343399D01*
X186089558Y-88301744D01*
X186079147Y-88301705D01*
X185808695Y-88322027D01*
X185597592Y-88390292D01*
X185414026Y-88517443D01*
X185390935Y-88538487D01*
X185206082Y-88771024D01*
X185101435Y-89034405D01*
X185073217Y-89311165D01*
X184892940Y-89311165D01*
X184892940Y-88962052D01*
X184757667Y-88981791D01*
X184684062Y-88997897D01*
X184643579Y-89035004D01*
X184626333Y-89117211D01*
X184622440Y-89268614D01*
X184622394Y-89311585D01*
X184427535Y-89311585D01*
X184425633Y-89232802D01*
X184425633Y-88793606D01*
X184621457Y-88793606D01*
X184752457Y-88784393D01*
X184818265Y-88744991D01*
X184848306Y-88669992D01*
X184846263Y-88527942D01*
X184762478Y-88435481D01*
X184604179Y-88400216D01*
X184591776Y-88400085D01*
X184491612Y-88395491D01*
X184442786Y-88364336D01*
X184426684Y-88280560D01*
X184424880Y-88166431D01*
X184414709Y-87978432D01*
X184375285Y-87869716D01*
X184290979Y-87822139D01*
X184146166Y-87817551D01*
X184125618Y-87818910D01*
X183909137Y-87834398D01*
X183894475Y-88114202D01*
X183882702Y-88273168D01*
X183860395Y-88358862D01*
X183815010Y-88396372D01*
X183746905Y-88409343D01*
X183656584Y-88433006D01*
X183619947Y-88496609D01*
X183613996Y-88596846D01*
X183230838Y-88596846D01*
X183245302Y-88413589D01*
X183224463Y-88161633D01*
X183164116Y-87944984D01*
X183148847Y-87912411D01*
X182993990Y-87689978D01*
X182795000Y-87524618D01*
X182576585Y-87436808D01*
X182574411Y-87436395D01*
X182472370Y-87427494D01*
X182363242Y-87445764D01*
X182222146Y-87498568D01*
X182024207Y-87593264D01*
X181995971Y-87607529D01*
X181775071Y-87730802D01*
X181552125Y-87873701D01*
X181368466Y-88009356D01*
X181337048Y-88035899D01*
X181080704Y-88260143D01*
X181080704Y-89212022D01*
X180847331Y-89212022D01*
X180837494Y-89009116D01*
X180831766Y-88817757D01*
X180833374Y-88680276D01*
X180842775Y-88581901D01*
X180860424Y-88507860D01*
X180886780Y-88443379D01*
X180906489Y-88404049D01*
X181009270Y-88260143D01*
X181080561Y-88160329D01*
X181342707Y-87922243D01*
X181682621Y-87694948D01*
X182089996Y-87483598D01*
X182554528Y-87293349D01*
X182606902Y-87276554D01*
X182885697Y-87276554D01*
X183024249Y-87367442D01*
X183182024Y-87511054D01*
X183327801Y-87711387D01*
X183435384Y-87927809D01*
X183473503Y-88064333D01*
X183495903Y-88183924D01*
X183514416Y-88248711D01*
X183517880Y-88252514D01*
X183626892Y-88211545D01*
X183681280Y-88089317D01*
X183687781Y-88001301D01*
X183716994Y-87812306D01*
X183810107Y-87689529D01*
X183975335Y-87626004D01*
X184145686Y-87613042D01*
X184358476Y-87629160D01*
X184494828Y-87686752D01*
X184572731Y-87799680D01*
X184608888Y-87969983D01*
X184631520Y-88111468D01*
X184669077Y-88182188D01*
X184738961Y-88209729D01*
X184762173Y-88212943D01*
X184891043Y-88271772D01*
X184995593Y-88385511D01*
X185101423Y-88543103D01*
X185218537Y-88415915D01*
X185447299Y-88239791D01*
X185742095Y-88136573D01*
X186063164Y-88106024D01*
X186393645Y-88138298D01*
X186660133Y-88239960D01*
X186871884Y-88414725D01*
X186892392Y-88438764D01*
X187008114Y-88578971D01*
X187032709Y-88067034D01*
X187045730Y-87833970D01*
X187061382Y-87677999D01*
X187084722Y-87577865D01*
X187120807Y-87512313D01*
X187174691Y-87460084D01*
X187177653Y-87457677D01*
X187238788Y-87400956D01*
X187255138Y-87354713D01*
X187215959Y-87310682D01*
X187110507Y-87260594D01*
X186928038Y-87196183D01*
X186772094Y-87145614D01*
X186279186Y-87026251D01*
X185720645Y-86958545D01*
X185114326Y-86942111D01*
X184478084Y-86976564D01*
X183829773Y-87061522D01*
X183187251Y-87196599D01*
X183077681Y-87225109D01*
X182885697Y-87276554D01*
X182606902Y-87276554D01*
X183065910Y-87129357D01*
X183613837Y-86996777D01*
X183786162Y-86963469D01*
X184124088Y-86915018D01*
X184512538Y-86880733D01*
X184927662Y-86860838D01*
X185345615Y-86855553D01*
X185742546Y-86865100D01*
X186094612Y-86889699D01*
X186377962Y-86929573D01*
X186422545Y-86939004D01*
X186754105Y-87027363D01*
X187057442Y-87132904D01*
X187306439Y-87245736D01*
X187429806Y-87320447D01*
X187557615Y-87388131D01*
X187675902Y-87416282D01*
X187800838Y-87448797D01*
X187877366Y-87497691D01*
X187914393Y-87542266D01*
X187939767Y-87608706D01*
X187955600Y-87714347D01*
X187964006Y-87876520D01*
X187967099Y-88112562D01*
X187967322Y-88235543D01*
X187970097Y-88476782D01*
X187977701Y-88678136D01*
X187989048Y-88821578D01*
X188003058Y-88889085D01*
X188006768Y-88891986D01*
X188049204Y-88852516D01*
X188123110Y-88748861D01*
X188212755Y-88603155D01*
X188215826Y-88597838D01*
X188354957Y-88393206D01*
X188498931Y-88269890D01*
X188670799Y-88212524D01*
X188807692Y-88203324D01*
X189016553Y-88225268D01*
X189143568Y-88293100D01*
X189189461Y-88409824D01*
X189154951Y-88578443D01*
X189040760Y-88801960D01*
X188975720Y-88903264D01*
X188872786Y-89059781D01*
X188795334Y-89183413D01*
X188756518Y-89252969D01*
X188754364Y-89259892D01*
X188779515Y-89319877D01*
X188845905Y-89436961D01*
X188939946Y-89590252D01*
X189048049Y-89758859D01*
X189156623Y-89921890D01*
X189252079Y-90058454D01*
X189320827Y-90147659D01*
X189346978Y-90170929D01*
X189433174Y-90142232D01*
X189576603Y-90064797D01*
X189757888Y-89951603D01*
X189957647Y-89815632D01*
X190156504Y-89669864D01*
X190335080Y-89527279D01*
X190422238Y-89450679D01*
X190709466Y-89150703D01*
X190904647Y-88863175D01*
X191012044Y-88580469D01*
X191037620Y-88350895D01*
X191013797Y-88110214D01*
X190935637Y-87899481D01*
X190790305Y-87692403D01*
X190637626Y-87531548D01*
X190361376Y-87315861D01*
X189996466Y-87116146D01*
X189551818Y-86935899D01*
X189036359Y-86778614D01*
X188459012Y-86647787D01*
X188311654Y-86620612D01*
X188092719Y-86593535D01*
X187794646Y-86573341D01*
X187436429Y-86559902D01*
X187037057Y-86553093D01*
X186615524Y-86552786D01*
X186190823Y-86558854D01*
X185781945Y-86571170D01*
X185407883Y-86589608D01*
X185087630Y-86614042D01*
X184843750Y-86643767D01*
X184024823Y-86795577D01*
X183259361Y-86978611D01*
X182552661Y-87190350D01*
X181910016Y-87428279D01*
X181336724Y-87689881D01*
X180838081Y-87972638D01*
X180419381Y-88274035D01*
X180085921Y-88591555D01*
X179842996Y-88922681D01*
X179775096Y-89052471D01*
X179675278Y-89355625D01*
X179668955Y-89641207D01*
X179583341Y-89641207D01*
X179563161Y-89526922D01*
X179572895Y-89358431D01*
X179659758Y-89054981D01*
X179832789Y-88743892D01*
X180082037Y-88438482D01*
X180397550Y-88152070D01*
X180568424Y-88026069D01*
X180713158Y-87921320D01*
X180793209Y-87841923D01*
X180827451Y-87761292D01*
X180834311Y-87659395D01*
X181085215Y-87659395D01*
X181106728Y-87696927D01*
X181170325Y-87688081D01*
X181292058Y-87632193D01*
X181425035Y-87562283D01*
X181695581Y-87417784D01*
X181400440Y-87429330D01*
X181236382Y-87438603D01*
X181146274Y-87457744D01*
X181105699Y-87498293D01*
X181090242Y-87571785D01*
X181089734Y-87576150D01*
X181085215Y-87659395D01*
X180834311Y-87659395D01*
X180834752Y-87652838D01*
X180834753Y-87650822D01*
X180860897Y-87445648D01*
X180931388Y-87281899D01*
X181001985Y-87207977D01*
X181070207Y-87193698D01*
X181215133Y-87181945D01*
X181415092Y-87173983D01*
X181634647Y-87171084D01*
X181901984Y-87167746D01*
X182111890Y-87154794D01*
X182301451Y-87126622D01*
X182507757Y-87077622D01*
X182767896Y-87002184D01*
X182784096Y-86997281D01*
X183590641Y-86783784D01*
X184429913Y-86619492D01*
X185285105Y-86505250D01*
X186139407Y-86441902D01*
X186976015Y-86430293D01*
X187778119Y-86471269D01*
G37*
%TO.C,U2*%
D19*
X195602980Y-112425499D02*
X197701024Y-112425499D01*
X195618220Y-114228903D02*
X197716264Y-114228903D01*
D20*
X195408669Y-112831900D02*
G75*
G02*
X195218169Y-112831900I-95250J0D01*
G01*
X195218169Y-112831900D02*
G75*
G02*
X195408669Y-112831900I95250J0D01*
G01*
%TO.C,R6*%
D14*
X187649102Y-106620000D02*
X187956384Y-106620000D01*
X187649102Y-107380000D02*
X187956384Y-107380000D01*
%TO.C,C4*%
X183307836Y-102840000D02*
X183092164Y-102840000D01*
X183307836Y-103560000D02*
X183092164Y-103560000D01*
%TO.C,R8*%
X182649102Y-101620000D02*
X182956384Y-101620000D01*
X182649102Y-102380000D02*
X182956384Y-102380000D01*
%TO.C,R10*%
X187563641Y-102885000D02*
X187256359Y-102885000D01*
X187563641Y-103645000D02*
X187256359Y-103645000D01*
%TO.C,J3*%
X175670000Y-82530000D02*
X175670000Y-118150000D01*
X175670000Y-82530000D02*
X178330000Y-82530000D01*
X175670000Y-118150000D02*
X178330000Y-118150000D01*
X177000000Y-79930000D02*
X178330000Y-79930000D01*
X178330000Y-79930000D02*
X178330000Y-81260000D01*
X178330000Y-82530000D02*
X178330000Y-118150000D01*
%TO.C,R11*%
X196900003Y-115906387D02*
X196900003Y-116213669D01*
X197660003Y-115906387D02*
X197660003Y-116213669D01*
%TO.C,D1*%
X179447743Y-110020000D02*
X179447743Y-111940000D01*
X179447743Y-111940000D02*
X182132743Y-111940000D01*
X182132743Y-110020000D02*
X179447743Y-110020000D01*
%TO.C,U1*%
D21*
X181726556Y-104423813D02*
X181972250Y-104423813D01*
X181726556Y-105141466D02*
X181726556Y-104423813D01*
X181726556Y-107358509D02*
X181726556Y-108076187D01*
X181726556Y-108076187D02*
X181972250Y-108076187D01*
X186378930Y-104423813D02*
X186133236Y-104423813D01*
X186378930Y-105141466D02*
X186378930Y-104423813D01*
X186378930Y-107358509D02*
X186378930Y-108076187D01*
X186378930Y-108076187D02*
X186133236Y-108076187D01*
D22*
X182377647Y-108540145D02*
G75*
G02*
X182227711Y-108540145I-74968J0D01*
G01*
X182227711Y-108540145D02*
G75*
G02*
X182377647Y-108540145I74968J0D01*
G01*
%TO.C,R13*%
D14*
X186172743Y-115153641D02*
X186172743Y-114846359D01*
X186932743Y-115153641D02*
X186932743Y-114846359D01*
%TO.C,C2*%
X183987836Y-110090000D02*
X183772164Y-110090000D01*
X183987836Y-110810000D02*
X183772164Y-110810000D01*
%TO.C,C5*%
X188088748Y-109265000D02*
X188611252Y-109265000D01*
X188088748Y-110735000D02*
X188611252Y-110735000D01*
%TO.C,R15*%
X187672743Y-115153641D02*
X187672743Y-114846359D01*
X188432743Y-115153641D02*
X188432743Y-114846359D01*
%TO.C,Q1*%
D18*
X193930003Y-113779914D02*
X192129978Y-113779914D01*
X193930003Y-116879939D02*
X192129978Y-116879939D01*
D23*
X191760000Y-113679025D02*
G75*
G02*
X191506000Y-113679025I-127000J0D01*
G01*
X191506000Y-113679025D02*
G75*
G02*
X191760000Y-113679025I127000J0D01*
G01*
%TO.C,USBC1*%
D18*
X180258635Y-120849810D02*
X180258635Y-118986894D01*
X180258635Y-124568199D02*
X180258635Y-123086894D01*
X189198641Y-120850165D02*
X189198641Y-118986538D01*
X189198641Y-124568199D02*
X180258635Y-124568199D01*
X189198641Y-124568199D02*
X189198641Y-123086538D01*
%TO.C,C7*%
D14*
X196360000Y-105047836D02*
X196360000Y-104832164D01*
X197080000Y-105047836D02*
X197080000Y-104832164D01*
%TO.C,C6*%
X195300000Y-105117836D02*
X195300000Y-104902164D01*
X196020000Y-105117836D02*
X196020000Y-104902164D01*
%TO.C,R4*%
X184046384Y-111190000D02*
X183739102Y-111190000D01*
X184046384Y-111950000D02*
X183739102Y-111950000D01*
%TD*%
%LPC*%
D24*
%TO.C,C11*%
X197377380Y-110614953D03*
X197377380Y-111574953D03*
%TD*%
%TO.C,C9*%
X195850003Y-115560028D03*
X195850003Y-116520028D03*
%TD*%
%TO.C,C10*%
X196317380Y-110614953D03*
X196317380Y-111574953D03*
%TD*%
D25*
%TO.C,D2*%
X180115243Y-113150000D03*
X181990243Y-113150000D03*
%TD*%
D26*
%TO.C,C8*%
X197770000Y-105490000D03*
X197770000Y-104530000D03*
%TD*%
D27*
%TO.C,R7*%
X185302743Y-103075000D03*
X185302743Y-101425000D03*
%TD*%
D28*
%TO.C,J2*%
X203000000Y-81260000D03*
D29*
X203000000Y-83800000D03*
X203000000Y-86340000D03*
X203000000Y-88880000D03*
X203000000Y-91420000D03*
X203000000Y-93960000D03*
X203000000Y-96500000D03*
X203000000Y-99040000D03*
X203000000Y-101580000D03*
X203000000Y-104120000D03*
X203000000Y-106660000D03*
X203000000Y-109200000D03*
X203000000Y-111740000D03*
X203000000Y-114280000D03*
X203000000Y-116820000D03*
%TD*%
D24*
%TO.C,C3*%
X180800000Y-107040000D03*
X180800000Y-108000000D03*
%TD*%
D30*
%TO.C,R12*%
X198530003Y-112600028D03*
X198530003Y-111580028D03*
%TD*%
D31*
%TO.C,C12*%
X186930000Y-102015000D03*
X187890000Y-102015000D03*
%TD*%
D32*
%TO.C,L1*%
X199680000Y-107267580D03*
X199680000Y-108842580D03*
%TD*%
D33*
%TO.C,U3*%
X198179873Y-109055080D03*
X198179873Y-108555207D03*
X198179873Y-108055080D03*
X198179873Y-107555207D03*
X198179873Y-107055080D03*
D34*
X195180127Y-107055080D03*
X195180127Y-107555207D03*
X195180127Y-108055080D03*
X195180127Y-108555207D03*
X195180127Y-109055080D03*
D35*
X196680000Y-108050000D03*
%TD*%
D36*
%TO.C,C1*%
X183880000Y-109400000D03*
X182920000Y-109400000D03*
%TD*%
D37*
%TO.C,R5*%
X184442743Y-112670000D03*
X183422743Y-112670000D03*
%TD*%
D30*
%TO.C,R14*%
X184552743Y-115510000D03*
X184552743Y-114490000D03*
%TD*%
D38*
%TO.C,R9*%
X187042743Y-104250000D03*
X188062743Y-104250000D03*
%TD*%
D39*
%TO.C,U4*%
X195059994Y-119800000D03*
X197600000Y-119800000D03*
%TD*%
D40*
%TO.C,U2*%
X196078977Y-112840028D03*
D41*
X196023859Y-113339901D03*
X196023859Y-113840028D03*
X197296147Y-113840028D03*
X197296147Y-113339901D03*
X197296147Y-112840028D03*
%TD*%
D38*
%TO.C,R6*%
X187292743Y-107000000D03*
X188312743Y-107000000D03*
%TD*%
D36*
%TO.C,C4*%
X183680000Y-103200000D03*
X182720000Y-103200000D03*
%TD*%
D38*
%TO.C,R8*%
X182292743Y-102000000D03*
X183312743Y-102000000D03*
%TD*%
D37*
%TO.C,R10*%
X187920000Y-103265000D03*
X186900000Y-103265000D03*
%TD*%
D28*
%TO.C,J3*%
X177000000Y-81260000D03*
D29*
X177000000Y-83800000D03*
X177000000Y-86340000D03*
X177000000Y-88880000D03*
X177000000Y-91420000D03*
X177000000Y-93960000D03*
X177000000Y-96500000D03*
X177000000Y-99040000D03*
X177000000Y-101580000D03*
X177000000Y-104120000D03*
X177000000Y-106660000D03*
X177000000Y-109200000D03*
X177000000Y-111740000D03*
X177000000Y-114280000D03*
X177000000Y-116820000D03*
%TD*%
D42*
%TO.C,R11*%
X197280003Y-115550028D03*
X197280003Y-116570028D03*
%TD*%
D25*
%TO.C,D1*%
X180195243Y-110980000D03*
X182070243Y-110980000D03*
%TD*%
D43*
%TO.C,U1*%
X181895263Y-106999886D03*
D44*
X182302679Y-107907430D03*
X182802807Y-107907430D03*
X183302679Y-107907430D03*
X183802807Y-107907430D03*
X184302679Y-107907430D03*
X184802807Y-107907430D03*
X185302679Y-107907430D03*
X185802807Y-107907430D03*
D43*
X186210223Y-106999886D03*
X186210223Y-105500013D03*
D44*
X185802807Y-104592469D03*
X185302679Y-104592469D03*
X184802807Y-104592469D03*
X184302679Y-104592469D03*
X183802807Y-104592469D03*
X183302679Y-104592469D03*
X182802807Y-104592469D03*
X182302679Y-104592469D03*
D43*
X181895263Y-105500013D03*
D45*
X184052743Y-106250076D03*
%TD*%
D30*
%TO.C,R13*%
X186552743Y-115510000D03*
X186552743Y-114490000D03*
%TD*%
D36*
%TO.C,C2*%
X184360000Y-110450000D03*
X183400000Y-110450000D03*
%TD*%
D46*
%TO.C,C5*%
X187400000Y-110000000D03*
X189300000Y-110000000D03*
%TD*%
D30*
%TO.C,R15*%
X188052743Y-115510000D03*
X188052743Y-114490000D03*
%TD*%
D47*
%TO.C,Q1*%
X191679990Y-114380066D03*
X191679990Y-115330028D03*
X191679990Y-116279990D03*
X194380016Y-116279990D03*
X194380016Y-115330028D03*
X194380016Y-114380066D03*
%TD*%
D48*
%TO.C,USBC1*%
X181827698Y-118268479D03*
X187627546Y-118268479D03*
D49*
X189052743Y-117768352D03*
D50*
X189052743Y-121948184D03*
X180402501Y-121948184D03*
D49*
X180402501Y-117768352D03*
D51*
X181527724Y-117000000D03*
D52*
X182327571Y-117000000D03*
D53*
X183477686Y-117000000D03*
X184477686Y-117000000D03*
X184977558Y-117000000D03*
X185977304Y-117000000D03*
D54*
X187927774Y-117000000D03*
X187127927Y-117000000D03*
D53*
X186477686Y-117000000D03*
X185477686Y-117000000D03*
X183977558Y-117000000D03*
X182977558Y-117000000D03*
%TD*%
D26*
%TO.C,C7*%
X196720000Y-105420000D03*
X196720000Y-104460000D03*
%TD*%
%TO.C,C6*%
X195660000Y-105490000D03*
X195660000Y-104530000D03*
%TD*%
D37*
%TO.C,R4*%
X184402743Y-111570000D03*
X183382743Y-111570000D03*
%TD*%
%LPD*%
M02*
