M48
; DRILL file KiCad 10.0.1 date 2026-05-12T20:21:21
; FORMAT={-:-/ absolute / inch / decimal}
; #@! TF.CreationDate,2026-05-12T20:21:21-04:00
; #@! TF.GenerationSoftware,Kicad,Pcbnew,10.0.1
; #@! TF.FileFunction,Plated,1,2,PTH
FMAT,2
INCH
; #@! TA.AperFunction,Plated,PTH,ViaDrill
T1C0.0118
; #@! TA.AperFunction,Plated,PTH,ComponentDrill
T2C0.0315
; #@! TA.AperFunction,Plated,PTH,ComponentDrill
T3C0.0394
; #@! TA.AperFunction,Plated,PTH,ComponentDrill
T4C0.0433
%
G90
G05
T1
X7.1016Y-4.2906
X7.1324Y-4.1535
X7.1468Y-4.6063
X7.1493Y-4.0913
X7.1677Y-4.3095
X7.1741Y-4.1846
X7.1993Y-3.9867
X7.2024Y-4.2091
X7.2029Y-4.1571
X7.2029Y-4.1846
X7.2299Y-4.2091
X7.2304Y-4.1571
X7.2304Y-4.1846
X7.2575Y-4.2091
X7.258Y-4.1571
X7.258Y-4.1846
X7.285Y-4.2091
X7.2855Y-4.1571
X7.2855Y-4.1846
X7.3123Y-4.1846
X7.3387Y-4.2483
X7.3421Y-3.9858
X7.3465Y-4.4646
X7.4016Y-4.4646
X7.4016Y-4.6063
X7.4177Y-4.2539
X7.4397Y-4.0404
X7.4433Y-4.1047
X7.5138Y-4.3303
X7.5433Y-4.4567
X7.5976Y-4.576
X7.6343Y-4.2736
X7.6772Y-4.3937
X7.7087Y-4.0709
X7.7283Y-4.2402
X7.7283Y-4.2677
X7.7351Y-4.5791
X7.748Y-4.0709
X7.7559Y-4.2402
X7.7559Y-4.2677
X7.7705Y-4.5189
X7.7874Y-4.0709
X7.8583Y-4.4094
T3
X6.9685Y-3.1992
X6.9685Y-3.2992
X6.9685Y-3.3992
X6.9685Y-3.4992
X6.9685Y-3.5992
X6.9685Y-3.6992
X6.9685Y-3.7992
X6.9685Y-3.8992
X6.9685Y-3.9992
X6.9685Y-4.0992
X6.9685Y-4.1992
X6.9685Y-4.2992
X6.9685Y-4.3992
X6.9685Y-4.4992
X6.9685Y-4.5992
X7.9921Y-3.1992
X7.9921Y-3.2992
X7.9921Y-3.3992
X7.9921Y-3.4992
X7.9921Y-3.5992
X7.9921Y-3.6992
X7.9921Y-3.7992
X7.9921Y-3.8992
X7.9921Y-3.9992
X7.9921Y-4.0992
X7.9921Y-4.1992
X7.9921Y-4.2992
X7.9921Y-4.3992
X7.9921Y-4.4992
X7.9921Y-4.5992
T4
X7.6795Y-4.7165
X7.7795Y-4.7165
T2
G00X7.1025Y-4.6208
M15
G01X7.1025Y-4.6523
M16
G05
G00X7.1025Y-4.7893
M15
G01X7.1025Y-4.8129
M16
G05
G00X7.443Y-4.6208
M15
G01X7.443Y-4.6523
M16
G05
G00X7.443Y-4.7893
M15
G01X7.443Y-4.8129
M16
G05
M30
